<svg id="Capa_1" data-name="Capa 1" xmlns="http://www.w3.org/2000/svg" viewBox="0 0 200 200"><defs><style>.cls-1{fill:#606161;}</style></defs><path class="cls-1" d="M4.68,56.44a30.34,30.34,0,0,1,2.63-5.18,10.44,10.44,0,0,1,9.05-4c.91,0,1.83,0,3,0,0-1.2,0-2.33,0-3.47A11,11,0,0,1,30.53,32.54c2.39,0,4.79,0,7.18,0a11,11,0,0,1,11.1,11.09c0,1.15,0,2.3,0,3.62,2.31,0,4.45.09,6.57-.07.51,0,1.13-.78,1.42-1.35,3.48-6.88,7-13.75,10.34-20.69,2.42-5,6.22-7.39,11.81-7.35q20,.15,39.91,0c5.43,0,9.2,2.25,11.58,7.12,3.38,6.93,6.91,13.79,10.29,20.72a2.47,2.47,0,0,0,2.62,1.64c12.57-.06,25.13,0,37.7,0,7.35,0,11.94,4.57,11.95,11.91q0,50.67,0,101.33c0,7.2-4.63,11.81-11.86,11.81q-81.46,0-162.93.07c-6.53,0-11.54-2.21-13.52-9.26Zm181,86.44h-2.19q-24.09,0-48.18,0a4.36,4.36,0,0,0-3.36,1.39,47.72,47.72,0,0,1-66.26-.14,3.93,3.93,0,0,0-3-1.25q-24.29.06-48.55,0H12v16.8c0,4.25,1,5.27,5.35,5.27H180.3c.55,0,1.1,0,1.65,0a3.59,3.59,0,0,0,3.66-3.61C185.67,155.27,185.63,149.2,185.63,142.88ZM12.05,76.6c.5,0,.8.07,1.1.07,16.67,0,33.34,0,50,0a3.81,3.81,0,0,0,2.31-1.11A47.83,47.83,0,0,1,132,75.44a4,4,0,0,0,3.05,1.26q24.27-.06,48.54,0h2V60.05c0-4.45-1-5.45-5.35-5.45H17.37c-.55,0-1.1,0-1.65,0a3.59,3.59,0,0,0-3.65,3.61C12,64.29,12.05,70.35,12.05,76.6Zm127.27,7.48c9.83,17.25,9.79,34.27,0,51.33h46.16V84.08Zm-81,0H12.18v51.31H58.34C48.56,118.33,48.54,101.3,58.31,84.13Zm81,25.74a40.46,40.46,0,1,0-40.55,40.36A40.49,40.49,0,0,0,139.3,109.87ZM64.4,47.1h68.89c-3.42-6.81-6.66-13.46-10.14-20a4.4,4.4,0,0,0-3.26-1.85q-21.06-.18-42.1,0a4.39,4.39,0,0,0-3.26,1.86C71.05,33.64,67.81,40.29,64.4,47.1Zm-37.61,0H41.45c0-1.33.07-2.55,0-3.75a3.57,3.57,0,0,0-3.59-3.47c-2.51-.08-5-.08-7.54,0a3.53,3.53,0,0,0-3.49,3.17C26.68,44.41,26.79,45.75,26.79,47.14Z"/><path class="cls-1" d="M171,62c1.22,0,2.44,0,3.66,0a3.66,3.66,0,1,1,0,7.31q-3.66.1-7.32,0a3.63,3.63,0,0,1-3.66-3.58,3.68,3.68,0,0,1,3.7-3.73C168.51,61.92,169.73,62,171,62Z"/><path class="cls-1" d="M156.2,65.65A3.66,3.66,0,1,1,152.64,62,3.7,3.7,0,0,1,156.2,65.65Z"/><path class="cls-1" d="M131.94,109.86a33.1,33.1,0,1,1-33-33.18A33.15,33.15,0,0,1,131.94,109.86ZM98.85,84a25.75,25.75,0,1,0,25.74,25.71A25.78,25.78,0,0,0,98.85,84Z"/><path class="cls-1" d="M98.64,39.89c-3.42,0-6.84,0-10.27,0-2.54,0-4.18-1.43-4.23-3.59s1.64-3.74,4.26-3.75h20.91c2.53,0,4.18,1.44,4.23,3.59s-1.65,3.74-4.26,3.75C105.74,39.9,102.19,39.89,98.64,39.89Z"/><path class="cls-1" d="M80.47,108.94A18.5,18.5,0,0,1,98.32,91.4c2.38,0,4.06,1.36,4.18,3.46s-1.47,3.72-4,3.88a11.05,11.05,0,0,0-10.73,10.51c-.17,2.68-1.65,4.29-3.85,4.19S80.39,111.59,80.47,108.94Z"/></svg>