<svg id="Capa_1" data-name="Capa 1" xmlns="http://www.w3.org/2000/svg" viewBox="0 0 500 225"><defs><style>.cls-1{fill:#d6a94d;}.cls-2{fill:#231f20;}</style></defs><path class="cls-1" d="M459.28,177.54C458,182.33,459,188.09,463,189.2s9.28-3,10.59-7.73-.9-9.57-4.94-10.68S460.59,172.76,459.28,177.54Z"/><path class="cls-2" d="M74,87.62c-1.23,3.73-2.47,7.41-3.66,11s-2.38,7-3.49,10.09-2.18,6-3.11,8.62S62,122.14,61.31,124c-2.16,4.73-7.35,14.33-9.39,16.3s-3.88,2.95-5.52,2.95a9.48,9.48,0,0,1-3.09-.54,8.31,8.31,0,0,1-2.7-1.55,7.38,7.38,0,0,1-1.89-2.4A7,7,0,0,1,38,135.6a8.46,8.46,0,0,1,.24-2.08c1.86-6.82,7-19.69,9.16-26s12.09-32.7,12.09-32.7c1.57-4.15,3.09-8.13,4.52-12s2.76-7.62,4-11.32a62.68,62.68,0,0,0,1.78-7.08,37,37,0,0,0,.67-6.75A24.73,24.73,0,0,0,70,32.82a10.47,10.47,0,0,0-1.53-3.74,7.63,7.63,0,0,0-2.7-2.41,8.73,8.73,0,0,0-4.1-.86,19.46,19.46,0,0,0-4.57.66,33.54,33.54,0,0,0-5.78,2.17,60.11,60.11,0,0,0-6.89,4,91.39,91.39,0,0,0-8.08,6,11.92,11.92,0,0,1-2.81,1.81,6.54,6.54,0,0,1-2.32.53c-.36,0-.64-.6-.81-1.77a31.6,31.6,0,0,1-.26-4.4,14.46,14.46,0,0,1,1.61-6.61,22.73,22.73,0,0,1,4.33-5.77,35.41,35.41,0,0,1,6.22-4.81A49.45,49.45,0,0,1,49.6,14,46.15,46.15,0,0,1,57,11.64a32.63,32.63,0,0,1,6.79-.81,30.34,30.34,0,0,1,8.84,1.28A18.93,18.93,0,0,1,85.16,23.47,28.39,28.39,0,0,1,87,34.37a49.3,49.3,0,0,1-.69,7.34c-.47,2.89-1.08,6.07-1.89,9.53s-1.72,7.11-2.79,11-2.24,7.87-3.46,11.92m32.37-1.86c2.26-7.45,4.72-15.13,7.42-23.1s5.58-15.75,8.62-23.41a16.32,16.32,0,0,1,4-6.09,8.44,8.44,0,0,1,5.86-2.27,8.9,8.9,0,0,1,2.67.4,6.34,6.34,0,0,1,2.27,1.24,5.62,5.62,0,0,1,1.55,2.15,7.36,7.36,0,0,1,.57,3c0,1-.07,2.23-.2,3.59a18.32,18.32,0,0,1-1.06,4.37c-1,2.77-2.09,5.7-3.24,8.86s-2.3,6.37-3.45,9.69-2.34,6.71-3.5,10.19-9.41,32.24-10.32,37S108,157,108,160.47c0,3-19.07,7-19.07,3.21,0-1.3,12.52-53.12,12.79-55.08s.64-4.18,1.15-6.69,1.12-5.22,1.84-8.18,1.54-6.09,2.41-9.38"/><path class="cls-2" d="M176.31,132.73a24.39,24.39,0,0,1-10.86-2.29,22.62,22.62,0,0,1-7.74-6.1,26,26,0,0,1-4.65-8.89,35.63,35.63,0,0,1-1.56-10.6,48.14,48.14,0,0,1,2.93-16.09,42.34,42.34,0,0,1,3.74-7.65,29.64,29.64,0,0,1,5.24-6.41,23.64,23.64,0,0,1,6.73-4.42,20.23,20.23,0,0,1,8.28-1.64,18.85,18.85,0,0,1,6.86,1.2,16.64,16.64,0,0,1,5.51,3.38,15.28,15.28,0,0,1,3.66,5.24,17.4,17.4,0,0,1,1.31,6.88,19,19,0,0,1-2,8.29,30.37,30.37,0,0,1-5.58,7.82A38.72,38.72,0,0,1,179.7,108,44.72,44.72,0,0,1,169,112.47a22,22,0,0,0,2,3,8.37,8.37,0,0,0,1.93,1.86,6.28,6.28,0,0,0,2.09.93,9.24,9.24,0,0,0,2.33.27,24.65,24.65,0,0,0,8.37-1.59,53.76,53.76,0,0,0,8.53-4,71,71,0,0,0,7.85-5.25,68.26,68.26,0,0,0,6.25-5.37l8.51,9A87.62,87.62,0,0,1,204.53,122c-1.88,1.32-3.91,2.64-6.08,3.92a55.81,55.81,0,0,1-6.87,3.45,46.78,46.78,0,0,1-7.44,2.4A34.05,34.05,0,0,1,176.31,132.73Zm-8.78-31.42a13,13,0,0,0,5.18-1.23,22.63,22.63,0,0,0,5.21-3.17,21.91,21.91,0,0,0,4.05-4.2,7.57,7.57,0,0,0,1.66-4.42,10.1,10.1,0,0,0-1.09-5,3.13,3.13,0,0,0-2.68-1.94A10.17,10.17,0,0,0,175,82.48a10.42,10.42,0,0,0-3.36,2.77,13.8,13.8,0,0,0-2.18,3.87,25.22,25.22,0,0,0-1.25,4.38,31.76,31.76,0,0,0-.56,4.26C167.58,99.16,167.53,100.34,167.53,101.31Z"/><path class="cls-2" d="M206.81,118.75c0-2.93.18-6.32.54-10.19s.77-7.76,1.31-11.76,1.13-7.83,1.77-11.52,1.31-6.86,1.93-9.49a10.44,10.44,0,0,1,2.8-5.15,7.66,7.66,0,0,1,5.64-2.08q3.55,0,4.94,2.22a10.85,10.85,0,0,1,1.4,5.87c0,.67-.08,1.58-.2,2.72s-.3,2.38-.5,3.74-.41,2.75-.62,4.21-.44,2.78-.65,4-.35,2.28-.47,3.2a17.86,17.86,0,0,0-.21,1.84h1.33c.26-.48.67-1.28,1.24-2.37s1.24-2.35,2-3.78,1.54-2.93,2.4-4.5,1.65-3.11,2.4-4.55,1.44-2.74,2-3.85,1.07-1.94,1.39-2.47a12,12,0,0,1,4.82-4.95,13.41,13.41,0,0,1,6-1.34,6.08,6.08,0,0,1,5.24,2.81c1.31,1.88,1.94,4.47,1.94,7.77a18.38,18.38,0,0,1-.27,2.45c-.22,1.16-.46,2.55-.77,4.15s-.66,3.38-1,5.29-.72,3.87-1,5.88-.56,4-.76,6a50.73,50.73,0,0,0-.3,5.4,19.39,19.39,0,0,0,1,6.82c.71,1.79,1.75,2.67,3.21,2.67a5.34,5.34,0,0,0,2.27-.6,21.83,21.83,0,0,0,2.77-1.56,30.38,30.38,0,0,0,3-2.26c1.05-.83,2.07-1.7,3.08-2.59,2.33-2.1,4.77-4.47,7.32-7.08l1.13,15-3.31,2.54c-1.79,1.36-3.64,2.76-5.5,4.14a52.64,52.64,0,0,1-5.84,3.7,36.1,36.1,0,0,1-6.34,2.68,22.47,22.47,0,0,1-6.9,1c-2.43,0-4.46-1.78-6.11-5.33s-2.48-8.72-2.48-15.53a75,75,0,0,1,.54-8.64c.35-3.11.78-6.43,1.31-10h-1.05L222,128a8.57,8.57,0,0,1-3,3.74,7.06,7.06,0,0,1-3.82,1,7.28,7.28,0,0,1-4.35-1.18,7.45,7.45,0,0,1-2.53-3.15,15.74,15.74,0,0,1-1.21-4.46A48.49,48.49,0,0,1,206.81,118.75Z"/><path class="cls-2" d="M354.39,123l-1.52.85a59.87,59.87,0,0,1-7.62,4.59,56.3,56.3,0,0,1-8.33,3.52,25.47,25.47,0,0,1-8.09,1.4,15.32,15.32,0,0,1-5.78-1,9.72,9.72,0,0,1-3.78-2.71,10.61,10.61,0,0,1-2.09-4.24,22.61,22.61,0,0,1-.62-5.51,58.73,58.73,0,0,1,1-9.79q1-5.58,2.33-11.56c.94-4,1.9-8,2.94-11.93s1.95-7.62,2.73-11a6.07,6.07,0,0,1,1.86-3,11.19,11.19,0,0,1,3.13-2,16.75,16.75,0,0,1,3.64-1.14,16,16,0,0,1,3.38-.38c1.85,0,3.1.34,3.76,1a3.78,3.78,0,0,1,1,2.78,19.67,19.67,0,0,1-.66,4.23Q341,80,340,83.51c-.65,2.35-1.37,4.85-2.11,7.54s-1.47,5.39-2.11,8.11-1.21,5.31-1.65,7.88a41.05,41.05,0,0,0-.66,6.9,14.14,14.14,0,0,0,.66,4.79,2.62,2.62,0,0,0,2.7,1.78,10.9,10.9,0,0,0,5.28-1.69,45.81,45.81,0,0,0,5.87-4c2-1.58,3.91-3.22,5.81-4.9s8.61-6.58,8.61-6.58C358.28,107.45,354.39,123,354.39,123ZM329.3,50.39a10.64,10.64,0,0,1,.65-3.47,11.25,11.25,0,0,1,2.14-3.64,12.07,12.07,0,0,1,4-2.87,14.42,14.42,0,0,1,6.16-1.18,16.33,16.33,0,0,1,4.34.55,9.9,9.9,0,0,1,3.58,1.64,7.91,7.91,0,0,1,2.41,2.9,9.44,9.44,0,0,1,.88,4.27,13.41,13.41,0,0,1-.72,4.41,10.28,10.28,0,0,1-2.3,3.81,11.93,11.93,0,0,1-4,2.71,14.68,14.68,0,0,1-5.79,1c-3.86,0-6.73-.93-8.57-2.79A9.9,9.9,0,0,1,329.3,50.39Z"/><path class="cls-2" d="M272.74,118.75c0-2,.09-4.24.32-6.84s.52-5.36.88-8.25.81-5.86,1.32-8.86,1.05-5.87,1.62-8.59S278,81,278.59,78.74a49.74,49.74,0,0,1,1.71-5.62,14.83,14.83,0,0,1,1.06-2.34,4.67,4.67,0,0,1,1.21-1.37,3.84,3.84,0,0,1,1.73-.66,13.73,13.73,0,0,1,2.53-.19,14.15,14.15,0,0,1,2.67.19,2.09,2.09,0,0,1,1.43.78,3.74,3.74,0,0,1,.57,1.84c.05.82.09,1.9.09,3.29v6q0,3.51.13,6.92h.73c.87-1.77,1.86-3.78,3-6a40.49,40.49,0,0,1,3.82-6.19,23.12,23.12,0,0,1,5-4.83,10.72,10.72,0,0,1,6.4-2A6.94,6.94,0,0,1,313,69a5.82,5.82,0,0,1,3.49,3.19,6.11,6.11,0,0,1,.54,2.64,21.52,21.52,0,0,1-.33,3.19c-.22,1.35-.45,2.77-.73,4.27s-.51,2.94-.71,4.34a22.44,22.44,0,0,0-.35,3.5,14.68,14.68,0,0,0,.47,4,7.6,7.6,0,0,0,1.22,2.57,4.53,4.53,0,0,0,1.71,1.37c.64.27-11.7,10.19-12.89,8a27.53,27.53,0,0,1-2.64-7.41c-.57-2.75-1-5.52-1.38-8.33h-1.06l-11.81,33.36c-.62,1.73-1.2,3.16-1.75,4.31a14.86,14.86,0,0,1-1.68,2.76,4.83,4.83,0,0,1-1.84,1.51,5.42,5.42,0,0,1-2.19.44,7.26,7.26,0,0,1-4.34-1.18,7.55,7.55,0,0,1-2.54-3.15,14.52,14.52,0,0,1-1.19-4.46A41.79,41.79,0,0,1,272.74,118.75Z"/><path class="cls-2" d="M212.9,191.44c0-1.95.11-4.24.32-6.84s.52-5.37.9-8.26.82-5.85,1.31-8.86,1-5.87,1.62-8.6,1.14-5.2,1.71-7.47a48.14,48.14,0,0,1,1.72-5.62,12,12,0,0,1,1.06-2.32,4.6,4.6,0,0,1,1.22-1.38,3.75,3.75,0,0,1,1.71-.67,15.28,15.28,0,0,1,2.53-.16,15.69,15.69,0,0,1,2.69.16,2.08,2.08,0,0,1,1.41.8,3.55,3.55,0,0,1,.56,1.84c.07.8.1,1.89.1,3.27v6c0,2.35.05,4.64.13,6.91h.73c.88-1.76,1.88-3.76,3-6a38.81,38.81,0,0,1,3.84-6.18,22.64,22.64,0,0,1,4.93-4.85,10.91,10.91,0,0,1,6.41-2,6.77,6.77,0,0,1,2.43.43,6.21,6.21,0,0,1,2.09,1.23,6.32,6.32,0,0,1,1.43,2,6.51,6.51,0,0,1,.52,2.64,21.83,21.83,0,0,1-.34,3.18c-.22,1.36-.46,2.78-.72,4.27s-.52,2.94-.71,4.35a22.44,22.44,0,0,0-.35,3.5,14.72,14.72,0,0,0,.46,4,7.45,7.45,0,0,0,1.23,2.56,4.49,4.49,0,0,0,1.71,1.38c.63.28-11.71,10.19-12.89,8a26.71,26.71,0,0,1-2.65-7.42c-.57-2.73-1-5.5-1.38-8.32h-1.06L228.74,196.4c-.62,1.73-1.22,3.17-1.76,4.3a14.33,14.33,0,0,1-1.68,2.77,4.82,4.82,0,0,1-1.85,1.49,5.22,5.22,0,0,1-2.18.46,7.37,7.37,0,0,1-4.35-1.18,7.67,7.67,0,0,1-2.55-3.14,14.81,14.81,0,0,1-1.16-4.47A42,42,0,0,1,212.9,191.44Z"/><path class="cls-2" d="M258.54,191.44c0-1.95.11-4.24.31-6.84s.52-5.37.9-8.26.82-5.85,1.33-8.86,1-5.87,1.62-8.6,1.12-5.2,1.71-7.47a48.56,48.56,0,0,1,1.7-5.62,13.31,13.31,0,0,1,1.06-2.32,4.49,4.49,0,0,1,1.23-1.38,3.66,3.66,0,0,1,1.71-.67,15,15,0,0,1,2.53-.16,15.79,15.79,0,0,1,2.68.16,2.08,2.08,0,0,1,1.41.8,3.55,3.55,0,0,1,.56,1.84c.08.8.11,1.89.11,3.27v6c0,2.35,0,4.64.12,6.91h.73c.89-1.76,1.88-3.76,3-6a38.76,38.76,0,0,1,3.83-6.18,23.61,23.61,0,0,1,4.94-4.85,10.83,10.83,0,0,1,6.4-2,6.66,6.66,0,0,1,2.43.43,6.46,6.46,0,0,1,2.1,1.23,6.11,6.11,0,0,1,1.41,2,6.35,6.35,0,0,1,.54,2.64,23,23,0,0,1-.33,3.18c-.23,1.36-.46,2.78-.74,4.27s-.51,2.94-.73,4.35a23.14,23.14,0,0,0-.32,3.5,14.34,14.34,0,0,0,.46,4,7.44,7.44,0,0,0,1.22,2.56,4.49,4.49,0,0,0,1.71,1.38c.63.28-11.69,10.19-12.9,8a27,27,0,0,1-2.63-7.42q-.86-4.09-1.38-8.32h-1.07l-11.8,33.37c-.62,1.73-1.2,3.17-1.74,4.3a14.83,14.83,0,0,1-1.69,2.77,4.77,4.77,0,0,1-1.86,1.49,5.13,5.13,0,0,1-2.16.46,7.28,7.28,0,0,1-4.35-1.18A7.83,7.83,0,0,1,260,201.1a14.82,14.82,0,0,1-1.18-4.47A42,42,0,0,1,258.54,191.44Z"/><path class="cls-2" d="M63,107.09a74.26,74.26,0,0,1-7.64,12.19c-2.26,2.71-7.17,10.53-8.57,10.53-1.94,0,.18-8.79.18-13.4a37.3,37.3,0,0,1,1.86-12.15A31.47,31.47,0,0,1,54,94.72a33.1,33.1,0,0,1,7.91-7.09,48.43,48.43,0,0,1,10-4.83A63.37,63.37,0,0,1,83.46,80a86,86,0,0,1,12.46-.9,101.33,101.33,0,0,1,15,1.13,107.35,107.35,0,0,1,14.44,3.2,84.45,84.45,0,0,1,12.94,5,55.86,55.86,0,0,1,10.45,6.46,29.76,29.76,0,0,1,7,7.67,16.18,16.18,0,0,1,2.54,8.61A26,26,0,0,1,149.12,131a37.28,37.28,0,0,1-12.07,6.87,55.24,55.24,0,0,1-17.65,2.89A27.87,27.87,0,0,1,130.82,143,23.53,23.53,0,0,1,139,148.8a24.59,24.59,0,0,1,4.95,8.52,30.89,30.89,0,0,1,1.66,10.11,37.33,37.33,0,0,1-4.5,17.43,38,38,0,0,1-5.6,7.76,34.68,34.68,0,0,1-7.88,6.29,40.79,40.79,0,0,1-10.2,4.25A47.28,47.28,0,0,1,105,204.72a72.28,72.28,0,0,1-9-.6c-3.18-.39-6.36-.92-9.61-1.58s-6.4-1.46-9.52-2.38,5.89-14.93,6.07-14.36a2.5,2.5,0,0,0,.79,1.27,70,70,0,0,0,8.64,2.34,44,44,0,0,0,9.24,1A40.77,40.77,0,0,0,112.41,189a26.7,26.7,0,0,0,9.38-4.47,22.74,22.74,0,0,0,6.55-7.84A25.16,25.16,0,0,0,130.82,165a13,13,0,0,0-5.26-11.09,19.75,19.75,0,0,0-5.34-2.86c-2-.71-4-1.35-6.14-1.92L108,147.46a25.17,25.17,0,0,1-5.35-2.09,11.8,11.8,0,0,1-3.79-3.18,7.89,7.89,0,0,1-1.46-4.93,18,18,0,0,1,.16-2.51,3.19,3.19,0,0,1,.8-1.76,3.9,3.9,0,0,1,1.85-1,13.56,13.56,0,0,1,3.32-.35,50.42,50.42,0,0,1,5.17.26,50.34,50.34,0,0,0,5.06.23,38.17,38.17,0,0,0,11.45-1.61,28.58,28.58,0,0,0,8.71-4.38,19.86,19.86,0,0,0,5.53-6.44,16.6,16.6,0,0,0,2-7.88,9.14,9.14,0,0,0-1.51-5.08,15,15,0,0,0-4.26-4.13,30.84,30.84,0,0,0-6.43-3.19,57.07,57.07,0,0,0-8-2.32A83.42,83.42,0,0,0,112,95.67c-3.22-.28-6.48-.43-9.77-.43A105.31,105.31,0,0,0,89.83,96a74.28,74.28,0,0,0-11.36,2.2,44.76,44.76,0,0,0-9.3,3.73A18.17,18.17,0,0,0,63,107.09Z"/><path class="cls-2" d="M218.61,188.17a54.14,54.14,0,0,1-4.06,5,49.61,49.61,0,0,1-5.69,5.5,35.89,35.89,0,0,1-6.81,4.41,16.18,16.18,0,0,1-7.24,1.81,10,10,0,0,1-7.26-2.85,23.15,23.15,0,0,1-5-8.25,31.29,31.29,0,0,1-3.88,3.81,33.55,33.55,0,0,1-5,3.51,32.5,32.5,0,0,1-5.71,2.57,18.61,18.61,0,0,1-5.93,1,15.39,15.39,0,0,1-6.16-1.31,16.16,16.16,0,0,1-5.32-3.74,18.5,18.5,0,0,1-3.69-5.95,21.37,21.37,0,0,1-1.4-7.92,40.21,40.21,0,0,1,1.4-10.29,56,56,0,0,1,3.83-10.33,59.78,59.78,0,0,1,5.76-9.53,48.34,48.34,0,0,1,7.29-7.82,35.71,35.71,0,0,1,8.35-5.31,21.55,21.55,0,0,1,9-2,4.06,4.06,0,0,1,2.36.59,6.19,6.19,0,0,1,1.42,1.37c.37.52.74,1,1.09,1.52a3,3,0,0,0,1.32,1.06,5.89,5.89,0,0,0,1.62.43,11.47,11.47,0,0,0,1.68.11l1.48,0c.51,0,1,0,1.47,0a8.35,8.35,0,0,1,1.86.2,2.94,2.94,0,0,1,1.52.87,4.39,4.39,0,0,1,1,1.87,12.1,12.1,0,0,1,.37,3.27,45.42,45.42,0,0,1-.65,7.12c-.46,2.6-1,5.29-1.47,8s-1,5.5-1.44,8.23a50.31,50.31,0,0,0-.66,7.77,17,17,0,0,0,.55,4.91,2.31,2.31,0,0,0,2.4,1.78,6.9,6.9,0,0,0,2.92-.69,19.48,19.48,0,0,0,3.06-1.85,32,32,0,0,0,3.11-2.57c1-1,2-1.94,2.92-3a103.75,103.75,0,0,0,6.54-8.15Zm-56.34-5.29a22.68,22.68,0,0,0,.24,3.25,9.89,9.89,0,0,0,.82,2.82,5.65,5.65,0,0,0,1.59,2,3.92,3.92,0,0,0,2.51.77,5.92,5.92,0,0,0,4.42-2.15,21.54,21.54,0,0,0,3.44-5.14,37.1,37.1,0,0,0,2.32-6.21,35.94,35.94,0,0,0,1.15-5.35l4-19.65a11.17,11.17,0,0,0-5.26,1.36,19.44,19.44,0,0,0-4.86,3.72,33.47,33.47,0,0,0-4.18,5.35,41.41,41.41,0,0,0-5.44,13A28.87,28.87,0,0,0,162.27,182.88Z"/><path class="cls-2" d="M322.47,204.56a24.39,24.39,0,0,1-10.86-2.28,22.41,22.41,0,0,1-7.75-6.12,26.51,26.51,0,0,1-4.65-8.88,36.06,36.06,0,0,1-1.54-10.61,44.9,44.9,0,0,1,.72-7.92,45.45,45.45,0,0,1,2.22-8.18,43.28,43.28,0,0,1,3.71-7.66,30.67,30.67,0,0,1,5.25-6.4,23.85,23.85,0,0,1,6.73-4.42,20.56,20.56,0,0,1,8.28-1.63,19.52,19.52,0,0,1,6.87,1.19,16.78,16.78,0,0,1,5.49,3.38,15.12,15.12,0,0,1,3.67,5.25,17.4,17.4,0,0,1,1.32,6.88,19,19,0,0,1-2,8.29,30.71,30.71,0,0,1-5.6,7.82,39.24,39.24,0,0,1-8.46,6.55,45.49,45.49,0,0,1-10.66,4.48,22.24,22.24,0,0,0,1.94,3,8.84,8.84,0,0,0,2,1.86,6.3,6.3,0,0,0,2.08,1,9.77,9.77,0,0,0,2.35.27,24.9,24.9,0,0,0,8.35-1.6,55.47,55.47,0,0,0,8.52-4,67.6,67.6,0,0,0,7.86-5.25,68.69,68.69,0,0,0,6.26-5.38l8.52,9a86.81,86.81,0,0,1-12.34,10.75q-2.83,2-6.1,4a53.41,53.41,0,0,1-6.85,3.43,45.87,45.87,0,0,1-7.47,2.41A34.8,34.8,0,0,1,322.47,204.56Zm-8.77-31.43a12.73,12.73,0,0,0,5.17-1.23,22.91,22.91,0,0,0,5.22-3.19,21.63,21.63,0,0,0,4.05-4.2,7.55,7.55,0,0,0,1.65-4.41,10.12,10.12,0,0,0-1.09-4.94,3.12,3.12,0,0,0-2.67-1.94,10.28,10.28,0,0,0-4.85,1.08,10.42,10.42,0,0,0-3.36,2.76,14.41,14.41,0,0,0-2.18,3.88,27.94,27.94,0,0,0-1.25,4.36,37.88,37.88,0,0,0-.58,4.29C313.75,171,313.7,172.16,313.7,173.13Z"/><path class="cls-2" d="M407,189.57c-4.22,2.51-8,4.69-11.28,6.55s-6.24,3.44-8.81,4.68a51.24,51.24,0,0,1-6.87,2.82,18.73,18.73,0,0,1-5.43.94,13.7,13.7,0,0,1-8.82-3.08,22.9,22.9,0,0,1-6.41-8.85,55.51,55.51,0,0,1-3.87-14,119.07,119.07,0,0,1-1.27-18.51q0-4,.31-8.55t.93-9c-1.32-.18-2.34-.33-3.06-.49s-1.51-.32-2.33-.46-1.84-.33-3.1-.52-3.06-.39-5.42-.66a5.7,5.7,0,0,1-2.45-.77,3.45,3.45,0,0,1-1.25-1.34,4.19,4.19,0,0,1-.46-1.6c0-.56-.07-1-.07-1.44a2.22,2.22,0,0,1,1.3-2,10.2,10.2,0,0,1,3.29-1,32.32,32.32,0,0,1,4.42-.37c1.61,0,3.13,0,4.61,0l4,.1a13.22,13.22,0,0,0,2.41-.1,149.43,149.43,0,0,1,4.52-17.47A98.46,98.46,0,0,1,368,99.32a41.3,41.3,0,0,1,7.42-10.54c2.69-2.67,5.49-4,8.44-4A9.07,9.07,0,0,1,389,86.4a13.89,13.89,0,0,1,4,4.27,21.81,21.81,0,0,1,2.53,6.24,30,30,0,0,1,.9,7.46,28.14,28.14,0,0,1-.92,6.93,52.54,52.54,0,0,1-2.51,7.4,78.72,78.72,0,0,1-3.72,7.65c-1.44,2.58-2.94,5.16-4.52,7.69.39,0,1.05.09,2,.1l3.2.1,3.93.16c1.41.08,2.77.14,4.1.18l3.69.14c1.13,0,2.09.08,2.82.13a2.11,2.11,0,0,1,1.93,1.33,7.7,7.7,0,0,1,.59,3.21,5.57,5.57,0,0,1-1.32,3.81,3.85,3.85,0,0,1-2.9,1.47H377.42c-1.28,1.78-2.56,3.54-3.86,5.25s-2.5,3.25-3.59,4.64c-.19,2.76-.33,5.47-.47,8.15-.05,1.17-.08,2.35-.13,3.56s-.09,2.44-.14,3.66-.07,2.36-.09,3.47-.05,2.15-.05,3.07a24.1,24.1,0,0,0,.67,6.1,10.53,10.53,0,0,0,1.92,4,7.25,7.25,0,0,0,3.07,2.29,11.09,11.09,0,0,0,4.06.69,11.92,11.92,0,0,0,3.45-.66,37.12,37.12,0,0,0,4.55-1.84q2.49-1.19,5.21-2.77a61.06,61.06,0,0,0,5.41-3.53c1.79-1.25,3.49-2.6,5.12-4a49.08,49.08,0,0,0,4.42-4.32ZM385.86,105a13.93,13.93,0,0,0-.1-1.63,6.8,6.8,0,0,0-.42-1.71,3.39,3.39,0,0,0-1-1.34,3.13,3.13,0,0,0-1.94-.52c-1.14,0-2.3,1-3.46,3.07a44.29,44.29,0,0,0-3.36,7.85q-1.62,4.78-3,10.52t-2.6,11.16c.66.09,1.32.18,2,.23s1.34.15,2.05.25c1.32-2.29,2.68-4.74,4.12-7.4s2.72-5.26,3.86-7.81,2.08-5,2.84-7.18A18.34,18.34,0,0,0,385.86,105Z"/><path class="cls-2" d="M456.8,191.23c-4.22,2.5-8.08,4.66-11.38,6.51s-6.22,3.46-8.81,4.69a49,49,0,0,1-6.85,2.8,18.26,18.26,0,0,1-5.44.93,13.67,13.67,0,0,1-8.84-3.07,22.92,22.92,0,0,1-6.39-8.85,56,56,0,0,1-3.87-14,120.11,120.11,0,0,1-1.29-18.5q0-4,.34-8.56c.21-3,.51-6,.92-9-1.33-.18-2.33-.35-3.07-.5s-1.5-.32-2.3-.47-1.85-.32-3.11-.5-3.06-.39-5.44-.67a5.8,5.8,0,0,1-2.44-.76,3.84,3.84,0,0,1-1.26-1.35,4.22,4.22,0,0,1-.46-1.6c0-.55-.05-1-.05-1.43a2.17,2.17,0,0,1,1.27-2,10.74,10.74,0,0,1,3.32-1,28,28,0,0,1,4.39-.37c1.62,0,3.16,0,4.63,0l4,.11a11.42,11.42,0,0,0,2.41-.11A150,150,0,0,1,411.56,116a97.89,97.89,0,0,1,6.14-15,41.47,41.47,0,0,1,7.41-10.55c2.67-2.65,5.5-4,8.45-4a8.91,8.91,0,0,1,5.17,1.6,13.94,13.94,0,0,1,4,4.28,22,22,0,0,1,2.55,6.25,31.38,31.38,0,0,1,.88,7.44,27.45,27.45,0,0,1-.93,6.92,52.26,52.26,0,0,1-2.5,7.42A77.56,77.56,0,0,1,439,128c-1.42,2.59-2.93,5.16-4.5,7.68a17,17,0,0,0,2,.12l3.2.09,3.92.17c1.4.07,2.77.13,4.09.17s2.54.1,3.69.13,2.1.09,2.84.14a2.13,2.13,0,0,1,1.92,1.34,7.62,7.62,0,0,1,.59,3.2,5.49,5.49,0,0,1-1.32,3.81,3.92,3.92,0,0,1-2.9,1.48H427.16c-1.27,1.77-2.57,3.52-3.86,5.24s-2.49,3.25-3.61,4.64c-.16,2.76-.32,5.48-.45,8.14-.05,1.17-.1,2.36-.14,3.59s-.08,2.44-.12,3.64-.08,2.37-.11,3.48,0,2.14,0,3.06a24,24,0,0,0,.66,6.09,10.76,10.76,0,0,0,1.93,4,7,7,0,0,0,3.05,2.27,11.12,11.12,0,0,0,4.06.71,12,12,0,0,0,3.47-.67,36.09,36.09,0,0,0,4.54-1.84c1.65-.79,3.39-1.71,5.2-2.79s12.63-9.11,14.52-10.34c-.17.11-.33.56-.44.74-.35.65-.67,1.35-1,2-1.12,2.64-1.85,5.67-1.09,8.5.41,1.61,1.18,3.46,2.74,4.28C456.55,191.16,456.73,191.28,456.8,191.23ZM435.6,106.6c0-.49,0-1-.09-1.64a7.54,7.54,0,0,0-.44-1.71,3.43,3.43,0,0,0-1-1.34,3.16,3.16,0,0,0-1.95-.53c-1.15,0-2.31,1-3.46,3.08a44.94,44.94,0,0,0-3.36,7.86c-1.08,3.17-2.09,6.68-3.06,10.51s-1.79,7.56-2.58,11.16c.65.09,1.31.18,2,.25s1.34.14,2,.23c1.32-2.27,2.69-4.74,4.12-7.39s2.72-5.26,3.86-7.82,2.09-5,2.85-7.17A18.33,18.33,0,0,0,435.6,106.6Z"/></svg>