<svg id="Capa_1" data-name="Capa 1" xmlns="http://www.w3.org/2000/svg" viewBox="0 0 364 179"><defs><style>.cls-1{fill:#fff;}</style></defs><path class="cls-1" d="M344.4,142.94c-1,3.78-.23,8.32,3,9.2s7.32-2.33,8.35-6.1-.71-7.54-3.9-8.42S345.43,139.18,344.4,142.94Z"/><path class="cls-1" d="M40.66,72.06c-1,2.94-1.94,5.84-2.88,8.66s-1.87,5.48-2.75,8-1.72,4.74-2.45,6.8-1.39,3.79-1.9,5.23c-1.7,3.73-5.79,11.3-7.41,12.86s-3.05,2.32-4.34,2.32a7.34,7.34,0,0,1-2.44-.43,6.43,6.43,0,0,1-2.13-1.22,5.5,5.5,0,0,1-2-4.36,6.46,6.46,0,0,1,.2-1.64C14,102.87,18,92.73,19.74,87.73S29.28,62,29.28,62c1.24-3.27,2.44-6.41,3.56-9.47s2.17-6,3.15-8.92A50,50,0,0,0,37.39,38a29.63,29.63,0,0,0,.52-5.32,19.36,19.36,0,0,0-.36-3.79,8,8,0,0,0-1.21-2.95A5.9,5.9,0,0,0,34.22,24,7,7,0,0,0,31,23.34a15.14,15.14,0,0,0-3.6.51,26.64,26.64,0,0,0-4.56,1.72,47.15,47.15,0,0,0-5.43,3.11A71,71,0,0,0,11,33.45a9,9,0,0,1-2.21,1.42A4.91,4.91,0,0,1,7,35.3c-.28,0-.5-.48-.63-1.4a24,24,0,0,1-.21-3.47,11.32,11.32,0,0,1,1.27-5.21,17.89,17.89,0,0,1,3.41-4.55,27.91,27.91,0,0,1,4.91-3.79A37.88,37.88,0,0,1,21.45,14a36.38,36.38,0,0,1,5.85-1.82,25.54,25.54,0,0,1,5.35-.64,23.93,23.93,0,0,1,7,1,14.9,14.9,0,0,1,9.86,9A22.34,22.34,0,0,1,51,30.08a39.46,39.46,0,0,1-.54,5.79c-.37,2.28-.86,4.79-1.49,7.51s-1.36,5.61-2.2,8.69S45,58.27,44,61.46M69.52,60q2.67-8.8,5.85-18.21t6.79-18.45a13,13,0,0,1,3.13-4.81,6.64,6.64,0,0,1,4.62-1.78,7,7,0,0,1,2.1.31,5.08,5.08,0,0,1,1.8,1A4.52,4.52,0,0,1,95,19.73a5.81,5.81,0,0,1,.44,2.38c0,.82,0,1.76-.15,2.84a14.43,14.43,0,0,1-.84,3.44c-.8,2.18-1.64,4.5-2.55,7s-1.81,5-2.72,7.64-1.84,5.29-2.76,8S79,76.46,78.32,80.2s-10.86,46.54-10.86,49.29c0,2.39-15,5.48-15,2.53,0-1,9.87-41.87,10.08-43.42s.51-3.3.91-5.27.88-4.12,1.45-6.46,1.21-4.79,1.9-7.39"/><path class="cls-1" d="M121.34,107.62a19.24,19.24,0,0,1-8.57-1.8,18,18,0,0,1-6.1-4.81A20.67,20.67,0,0,1,103,94a28.41,28.41,0,0,1-1.23-8.36A37.95,37.95,0,0,1,104.09,73a33.63,33.63,0,0,1,2.94-6,23.53,23.53,0,0,1,4.13-5.05,18.65,18.65,0,0,1,5.31-3.49A16,16,0,0,1,123,57.1a14.76,14.76,0,0,1,5.41.95,13.2,13.2,0,0,1,4.35,2.66,11.91,11.91,0,0,1,2.88,4.13,13.66,13.66,0,0,1,1,5.43,15,15,0,0,1-1.58,6.53,24.05,24.05,0,0,1-4.4,6.16A30.32,30.32,0,0,1,124,88.12a35.08,35.08,0,0,1-8.4,3.53A18.3,18.3,0,0,0,117.14,94a7,7,0,0,0,1.53,1.47,5.15,5.15,0,0,0,1.65.73,7.23,7.23,0,0,0,1.83.21,19.33,19.33,0,0,0,6.6-1.25A41.89,41.89,0,0,0,135.47,92a55.58,55.58,0,0,0,6.19-4.14,53.36,53.36,0,0,0,4.93-4.23l6.71,7.06a67.82,67.82,0,0,1-9.72,8.48c-1.48,1-3.08,2.08-4.8,3.1a43.36,43.36,0,0,1-5.41,2.71,36.9,36.9,0,0,1-5.87,1.9A26.79,26.79,0,0,1,121.34,107.62Zm-6.93-24.76a10.17,10.17,0,0,0,4.08-1,17.65,17.65,0,0,0,4.11-2.5,17.19,17.19,0,0,0,3.2-3.31,6,6,0,0,0,1.3-3.48,8,8,0,0,0-.86-3.91,2.47,2.47,0,0,0-2.11-1.52,7.94,7.94,0,0,0-3.81.85,8.09,8.09,0,0,0-2.65,2.19,10.68,10.68,0,0,0-1.72,3,19.55,19.55,0,0,0-1,3.45,24.08,24.08,0,0,0-.45,3.36C114.45,81.15,114.41,82.09,114.41,82.86Z"/><path class="cls-1" d="M145.38,96.6c0-2.31.14-5,.42-8s.61-6.12,1-9.27.89-6.17,1.4-9.08,1-5.41,1.52-7.48A8.24,8.24,0,0,1,152,58.68,6,6,0,0,1,156.4,57c1.88,0,3.17.58,3.9,1.75a8.57,8.57,0,0,1,1.1,4.63,21.12,21.12,0,0,1-.16,2.14c-.11.89-.23,1.87-.39,2.94l-.49,3.32C160.18,73,160,74,159.85,75s-.28,1.8-.37,2.52-.17,1.21-.17,1.44h1.05l1-1.86c.45-.86,1-1.85,1.57-3s1.22-2.31,1.9-3.55,1.3-2.44,1.89-3.58,1.13-2.16,1.62-3,.83-1.53,1.09-1.95a9.52,9.52,0,0,1,3.8-3.9A10.62,10.62,0,0,1,177.93,57a4.8,4.8,0,0,1,4.13,2.21,10.59,10.59,0,0,1,1.53,6.13,14.69,14.69,0,0,1-.21,1.93c-.17.91-.36,2-.61,3.27s-.51,2.66-.81,4.17-.57,3-.8,4.63-.43,3.14-.59,4.69a39.07,39.07,0,0,0-.24,4.26,15.18,15.18,0,0,0,.8,5.38c.55,1.41,1.38,2.11,2.52,2.11a4.22,4.22,0,0,0,1.79-.48,18,18,0,0,0,2.19-1.23A25.35,25.35,0,0,0,190,92.33c.83-.65,1.63-1.35,2.42-2,1.85-1.66,3.77-3.52,5.78-5.59l.89,11.81-2.61,2c-1.41,1.07-2.87,2.17-4.34,3.26a41.93,41.93,0,0,1-4.6,2.92,28.93,28.93,0,0,1-5,2.11,17.78,17.78,0,0,1-5.44.82c-1.91,0-3.52-1.4-4.81-4.2s-2-6.87-2-12.24a62.23,62.23,0,0,1,.42-6.81c.28-2.45.63-5.07,1-7.89H171l-13.63,27.39a6.74,6.74,0,0,1-2.35,2.95,5.61,5.61,0,0,1-3,.8,5.76,5.76,0,0,1-3.43-.93,6,6,0,0,1-2-2.48,12.18,12.18,0,0,1-.95-3.52A36.15,36.15,0,0,1,145.38,96.6Z"/><path class="cls-1" d="M261.71,99.92l-1.19.67a49.08,49.08,0,0,1-6,3.62,44.07,44.07,0,0,1-6.57,2.77,20.08,20.08,0,0,1-6.38,1.11,12,12,0,0,1-4.55-.76,7.7,7.7,0,0,1-3-2.14,8.43,8.43,0,0,1-1.64-3.34,17.91,17.91,0,0,1-.49-4.34,45.73,45.73,0,0,1,.76-7.72c.5-2.93,1.12-6,1.84-9.11s1.49-6.28,2.31-9.41,1.54-6,2.16-8.64a4.69,4.69,0,0,1,1.46-2.34,8.61,8.61,0,0,1,2.47-1.58,12.92,12.92,0,0,1,2.87-.89,12.18,12.18,0,0,1,2.67-.3,4.08,4.08,0,0,1,3,.82,3,3,0,0,1,.78,2.19,15.43,15.43,0,0,1-.52,3.34c-.35,1.45-.79,3.11-1.3,4.95s-1.08,3.83-1.66,6S247.53,79,247,81.15s-1,4.19-1.29,6.22a31,31,0,0,0-.52,5.44,10.78,10.78,0,0,0,.52,3.77A2,2,0,0,0,247.85,98,8.59,8.59,0,0,0,252,96.66a36.32,36.32,0,0,0,4.63-3.19c1.57-1.25,3.09-2.54,4.58-3.86S268,84.42,268,84.42C264.78,87.69,261.71,99.92,261.71,99.92Zm-19.78-57.2a8.26,8.26,0,0,1,.52-2.74,8.79,8.79,0,0,1,1.68-2.87,9.59,9.59,0,0,1,3.13-2.27,11.51,11.51,0,0,1,4.86-.92,12.92,12.92,0,0,1,3.42.43,7.86,7.86,0,0,1,2.82,1.29,6.13,6.13,0,0,1,1.9,2.29A7.48,7.48,0,0,1,261,41.3a10.48,10.48,0,0,1-.57,3.47,7.85,7.85,0,0,1-1.81,3,9.25,9.25,0,0,1-3.14,2.14,11.66,11.66,0,0,1-4.57.82c-3,0-5.3-.73-6.75-2.2A7.79,7.79,0,0,1,241.93,42.72Z"/><path class="cls-1" d="M197.35,96.6c0-1.54.07-3.34.25-5.39s.41-4.23.69-6.51.64-4.61,1-7,.83-4.63,1.28-6.77.89-4.11,1.35-5.89a40,40,0,0,1,1.35-4.43,11,11,0,0,1,.83-1.84,3.64,3.64,0,0,1,1-1.08,3.06,3.06,0,0,1,1.36-.53,11.21,11.21,0,0,1,2-.14,11.48,11.48,0,0,1,2.1.14,1.73,1.73,0,0,1,1.13.62,3,3,0,0,1,.44,1.45c0,.64.08,1.5.08,2.59v4.71c0,1.84,0,3.67.1,5.45h.57c.69-1.39,1.47-3,2.34-4.71a32.29,32.29,0,0,1,3-4.88,18.07,18.07,0,0,1,3.91-3.81A8.45,8.45,0,0,1,227.19,57a5.48,5.48,0,0,1,1.91.36,4.35,4.35,0,0,1,1.65,1,4.42,4.42,0,0,1,1.1,1.54,4.84,4.84,0,0,1,.43,2.08,17.36,17.36,0,0,1-.26,2.52c-.17,1.07-.36,2.18-.57,3.37s-.41,2.32-.57,3.42a17.74,17.74,0,0,0-.27,2.76,11.27,11.27,0,0,0,.37,3.16,6.09,6.09,0,0,0,1,2,3.41,3.41,0,0,0,1.35,1.08c.5.21-9.23,8-10.16,6.29A21.7,21.7,0,0,1,221,80.78c-.44-2.17-.81-4.35-1.08-6.56h-.84l-9.31,26.29a35.16,35.16,0,0,1-1.38,3.4,12.15,12.15,0,0,1-1.32,2.18,4,4,0,0,1-1.45,1.19,4.41,4.41,0,0,1-1.73.34,5.75,5.75,0,0,1-3.42-.93,6,6,0,0,1-2-2.48,11.58,11.58,0,0,1-.94-3.52A34,34,0,0,1,197.35,96.6Z"/><path class="cls-1" d="M150.18,153.9c0-1.54.09-3.34.25-5.39s.41-4.23.71-6.51.65-4.62,1-7,.82-4.62,1.28-6.78.9-4.09,1.35-5.89a35.91,35.91,0,0,1,1.35-4.42,9.13,9.13,0,0,1,.84-1.83,3.55,3.55,0,0,1,1-1.09,2.93,2.93,0,0,1,1.35-.53,12.54,12.54,0,0,1,2-.12,13,13,0,0,1,2.12.12,1.68,1.68,0,0,1,1.12.63,2.89,2.89,0,0,1,.44,1.45c.05.63.07,1.49.07,2.58v4.71c0,1.85,0,3.66.11,5.45h.58l2.33-4.7a30.19,30.19,0,0,1,3-4.88,17.81,17.81,0,0,1,3.89-3.82,8.6,8.6,0,0,1,5.05-1.54,5.29,5.29,0,0,1,1.92.34,4.86,4.86,0,0,1,1.64,1,4.72,4.72,0,0,1,1.54,3.64,16.2,16.2,0,0,1-.27,2.5c-.17,1.07-.36,2.2-.56,3.37s-.42,2.32-.57,3.43a17.74,17.74,0,0,0-.27,2.76,11.34,11.34,0,0,0,.37,3.17,5.62,5.62,0,0,0,1,2,3.35,3.35,0,0,0,1.35,1.09c.5.22-9.23,8-10.16,6.29a20.77,20.77,0,0,1-2.09-5.85c-.45-2.15-.82-4.33-1.09-6.56H172l-9.3,26.31c-.49,1.37-1,2.5-1.38,3.39a11.91,11.91,0,0,1-1.33,2.19,4,4,0,0,1-1.45,1.17,4.12,4.12,0,0,1-1.73.36,5.72,5.72,0,0,1-3.42-.93,6.07,6.07,0,0,1-2-2.47,11.8,11.8,0,0,1-.91-3.53A32.11,32.11,0,0,1,150.18,153.9Z"/><path class="cls-1" d="M186.15,153.9c0-1.54.09-3.34.25-5.39s.41-4.23.71-6.51.65-4.62,1-7,.81-4.62,1.28-6.78.89-4.09,1.35-5.89a38,38,0,0,1,1.34-4.42,10.4,10.4,0,0,1,.84-1.83,3.55,3.55,0,0,1,1-1.09,2.92,2.92,0,0,1,1.36-.53,12.38,12.38,0,0,1,2-.12,13,13,0,0,1,2.11.12,1.63,1.63,0,0,1,1.11.63,2.71,2.71,0,0,1,.44,1.45,25.39,25.39,0,0,1,.09,2.58v4.71c0,1.85,0,3.66.09,5.45h.58c.7-1.39,1.49-3,2.34-4.7a30.91,30.91,0,0,1,3-4.88,18.54,18.54,0,0,1,3.9-3.82,8.57,8.57,0,0,1,5-1.54,5.22,5.22,0,0,1,1.92.34,5,5,0,0,1,1.65,1,4.9,4.9,0,0,1,1.12,1.56,5.08,5.08,0,0,1,.42,2.08,18.84,18.84,0,0,1-.26,2.5c-.18,1.07-.37,2.2-.59,3.37s-.4,2.32-.57,3.43a18.66,18.66,0,0,0-.25,2.76,11.38,11.38,0,0,0,.36,3.17,6,6,0,0,0,1,2,3.49,3.49,0,0,0,1.35,1.09c.5.22-9.22,8-10.17,6.29a21.07,21.07,0,0,1-2.07-5.85c-.45-2.15-.81-4.33-1.09-6.56h-.84l-9.31,26.31a33.11,33.11,0,0,1-1.37,3.39,11.91,11.91,0,0,1-1.33,2.19,3.89,3.89,0,0,1-1.46,1.17,4,4,0,0,1-1.71.36,5.66,5.66,0,0,1-3.42-.93,6.15,6.15,0,0,1-2-2.47,12.1,12.1,0,0,1-.93-3.53A34.08,34.08,0,0,1,186.15,153.9Z"/><path class="cls-1" d="M32,87.41A58.93,58.93,0,0,1,26,97c-1.78,2.14-5.66,8.3-6.76,8.3-1.53,0,.15-6.93.15-10.57a29.37,29.37,0,0,1,1.46-9.57,25,25,0,0,1,4.07-7.52,26,26,0,0,1,6.24-5.59,38,38,0,0,1,7.91-3.81,49.79,49.79,0,0,1,9.08-2.19A67.05,67.05,0,0,1,58,65.36a80.09,80.09,0,0,1,11.81.89,85.12,85.12,0,0,1,11.39,2.52,67.65,67.65,0,0,1,10.19,4,43.82,43.82,0,0,1,8.24,5.1,23.24,23.24,0,0,1,5.5,6,12.74,12.74,0,0,1,2,6.79,20.5,20.5,0,0,1-7.19,15.61,29.33,29.33,0,0,1-9.51,5.42A43.7,43.7,0,0,1,76.47,114a21.83,21.83,0,0,1,9,1.71,18.56,18.56,0,0,1,6.44,4.61A19.43,19.43,0,0,1,95.82,127a24.59,24.59,0,0,1,1.3,8,29,29,0,0,1-.89,7,28.51,28.51,0,0,1-2.66,6.79,29.75,29.75,0,0,1-4.41,6.11,27.38,27.38,0,0,1-6.21,5,32.19,32.19,0,0,1-8,3.35,37.29,37.29,0,0,1-9.82,1.23A58,58,0,0,1,58,163.9c-2.5-.31-5-.72-7.57-1.25s-5-1.15-7.51-1.88,4.64-11.77,4.79-11.31a2,2,0,0,0,.62,1,54.78,54.78,0,0,0,6.81,1.84,34.71,34.71,0,0,0,7.28.77A31.92,31.92,0,0,0,71,151.94a20.89,20.89,0,0,0,7.39-3.52,17.94,17.94,0,0,0,5.17-6.18,19.93,19.93,0,0,0,2-9.16,10.75,10.75,0,0,0-1.15-5.24,10.91,10.91,0,0,0-3-3.51,15.83,15.83,0,0,0-4.21-2.25c-1.58-.56-3.19-1.07-4.85-1.52l-4.81-1.33a19.53,19.53,0,0,1-4.22-1.65,9.11,9.11,0,0,1-3-2.51,6.13,6.13,0,0,1-1.15-3.88,14.1,14.1,0,0,1,.12-2,2.59,2.59,0,0,1,.63-1.39,3,3,0,0,1,1.46-.81,10.41,10.41,0,0,1,2.61-.28c1.5,0,2.86.08,4.08.2a38.65,38.65,0,0,0,4,.18,30.11,30.11,0,0,0,9-1.26,22.36,22.36,0,0,0,6.87-3.46,15.6,15.6,0,0,0,4.37-5.08,13.05,13.05,0,0,0,1.53-6.2,7.22,7.22,0,0,0-1.19-4,11.75,11.75,0,0,0-3.36-3.25,24.12,24.12,0,0,0-5.06-2.52,46.36,46.36,0,0,0-6.36-1.83,66.77,66.77,0,0,0-7.22-1.09c-2.53-.23-5.1-.35-7.69-.35a82.74,82.74,0,0,0-9.75.58,59.18,59.18,0,0,0-8.95,1.73,34.38,34.38,0,0,0-7.33,2.94A14.28,14.28,0,0,0,32,87.41Z"/><path class="cls-1" d="M154.68,151.33a45.46,45.46,0,0,1-3.2,3.94A40.22,40.22,0,0,1,147,159.6a28.28,28.28,0,0,1-5.36,3.48,12.85,12.85,0,0,1-5.72,1.42,7.88,7.88,0,0,1-5.72-2.24,18.34,18.34,0,0,1-4-6.5,25.76,25.76,0,0,1-3.06,3,27.33,27.33,0,0,1-4,2.77,25.91,25.91,0,0,1-4.5,2,14.69,14.69,0,0,1-4.68.79,12.16,12.16,0,0,1-4.86-1,12.84,12.84,0,0,1-4.19-2.94,14.83,14.83,0,0,1-2.91-4.7,16.84,16.84,0,0,1-1.1-6.24,31.81,31.81,0,0,1,1.1-8.11,44.63,44.63,0,0,1,3-8.14,47.16,47.16,0,0,1,4.54-7.51,37.8,37.8,0,0,1,5.75-6.17,27.92,27.92,0,0,1,6.58-4.18,17,17,0,0,1,7.06-1.55,3.16,3.16,0,0,1,1.86.47,4.81,4.81,0,0,1,1.12,1.08c.29.41.58.8.85,1.19a2.44,2.44,0,0,0,1,.84,4.88,4.88,0,0,0,1.27.34,9.6,9.6,0,0,0,1.33.08l1.17,0c.4,0,.79,0,1.15,0a6.19,6.19,0,0,1,1.47.16,2.31,2.31,0,0,1,1.2.68,3.39,3.39,0,0,1,.8,1.47,9.25,9.25,0,0,1,.29,2.58,35.91,35.91,0,0,1-.51,5.62c-.36,2-.74,4.16-1.16,6.31s-.79,4.33-1.13,6.49a39.53,39.53,0,0,0-.52,6.13,13.44,13.44,0,0,0,.43,3.87,1.83,1.83,0,0,0,1.9,1.4,5.44,5.44,0,0,0,2.29-.55,14.14,14.14,0,0,0,2.41-1.45,24.68,24.68,0,0,0,2.46-2c.81-.76,1.57-1.53,2.3-2.35a78,78,0,0,0,5.16-6.42Zm-44.41-4.17a19,19,0,0,0,.18,2.55,7.76,7.76,0,0,0,.65,2.23,4.57,4.57,0,0,0,1.25,1.58,3.11,3.11,0,0,0,2,.6,4.7,4.7,0,0,0,3.49-1.69,17.35,17.35,0,0,0,2.71-4.05,30.73,30.73,0,0,0,1.83-4.9,29.24,29.24,0,0,0,.91-4.22l3.17-15.49a8.93,8.93,0,0,0-4.15,1.07,16,16,0,0,0-3.83,2.93,27.11,27.11,0,0,0-3.29,4.22,31.49,31.49,0,0,0-2.61,5,30.66,30.66,0,0,0-1.68,5.24A22.44,22.44,0,0,0,110.27,147.16Z"/><path class="cls-1" d="M236.55,164.24a19.37,19.37,0,0,1-8.56-1.79,17.86,17.86,0,0,1-6.11-4.82,21,21,0,0,1-3.67-7,28.51,28.51,0,0,1-1.21-8.36,36.59,36.59,0,0,1,.56-6.24,35.62,35.62,0,0,1,1.76-6.45,34,34,0,0,1,2.92-6,24.33,24.33,0,0,1,4.14-5,19.15,19.15,0,0,1,5.3-3.48,16.26,16.26,0,0,1,6.53-1.29,15.47,15.47,0,0,1,5.42.94,13.36,13.36,0,0,1,4.33,2.67,11.88,11.88,0,0,1,2.89,4.14,13.61,13.61,0,0,1,1,5.42,15,15,0,0,1-1.58,6.53,24.39,24.39,0,0,1-4.41,6.17,30.8,30.8,0,0,1-6.67,5.16,35.92,35.92,0,0,1-8.41,3.53,16.27,16.27,0,0,0,1.54,2.37,6.74,6.74,0,0,0,1.53,1.47,5,5,0,0,0,1.64.75,7.91,7.91,0,0,0,1.86.21,19.58,19.58,0,0,0,6.58-1.26,42.67,42.67,0,0,0,6.71-3.17,52.65,52.65,0,0,0,6.2-4.14,52.08,52.08,0,0,0,4.94-4.24l6.71,7.07a68.82,68.82,0,0,1-9.73,8.47c-1.49,1.06-3.08,2.1-4.8,3.12a42.68,42.68,0,0,1-5.41,2.71,36.16,36.16,0,0,1-5.89,1.9A27.63,27.63,0,0,1,236.55,164.24Zm-6.91-24.77a9.94,9.94,0,0,0,4.07-1,18.36,18.36,0,0,0,4.12-2.52,17.08,17.08,0,0,0,3.19-3.3,6,6,0,0,0,1.3-3.48,7.92,7.92,0,0,0-.86-3.89,2.47,2.47,0,0,0-2.11-1.54,8.1,8.1,0,0,0-3.82.85,8.42,8.42,0,0,0-2.65,2.18,11.4,11.4,0,0,0-1.71,3.06,21.34,21.34,0,0,0-1,3.44,27.92,27.92,0,0,0-.45,3.37C229.68,137.76,229.64,138.7,229.64,139.47Z"/><path class="cls-1" d="M303.16,152.43c-3.32,2-6.3,3.7-8.89,5.16s-4.92,2.71-6.95,3.69a39.64,39.64,0,0,1-5.41,2.22,14.48,14.48,0,0,1-4.28.74,10.76,10.76,0,0,1-6.95-2.43,17.92,17.92,0,0,1-5.06-7,44.08,44.08,0,0,1-3.05-11.05,94.64,94.64,0,0,1-1-14.59q0-3.16.25-6.74t.73-7.12c-1.05-.14-1.85-.27-2.42-.39s-1.18-.25-1.83-.36-1.45-.26-2.44-.41-2.42-.31-4.28-.52a4.57,4.57,0,0,1-1.93-.61,2.64,2.64,0,0,1-1-1,3.38,3.38,0,0,1-.37-1.27c0-.44-.05-.81-.05-1.13a1.75,1.75,0,0,1,1-1.6,8,8,0,0,1,2.6-.82,25.6,25.6,0,0,1,3.48-.29c1.27,0,2.47,0,3.64,0l3.11.08a10,10,0,0,0,1.9-.08,118.13,118.13,0,0,1,3.57-13.77,77.31,77.31,0,0,1,4.83-11.86A32.89,32.89,0,0,1,278.25,73a9.41,9.41,0,0,1,6.65-3.14A7.19,7.19,0,0,1,289,71.1a11.31,11.31,0,0,1,3.15,3.36,17.6,17.6,0,0,1,2,4.92,23.73,23.73,0,0,1,.7,5.88,22.13,22.13,0,0,1-.72,5.47,42.16,42.16,0,0,1-2,5.83,64.09,64.09,0,0,1-2.94,6c-1.13,2-2.32,4.07-3.56,6.06.3,0,.82.07,1.55.09s1.56,0,2.52.07l3.1.12c1.11.07,2.18.12,3.23.15l2.91.11c.89,0,1.65.06,2.23.1a1.67,1.67,0,0,1,1.52,1,6.18,6.18,0,0,1,.46,2.53,4.39,4.39,0,0,1-1,3,3.08,3.08,0,0,1-2.28,1.15h-20c-1,1.41-2,2.79-3.05,4.14s-2,2.56-2.83,3.66q-.21,3.26-.37,6.43c0,.91-.06,1.85-.1,2.8s-.07,1.92-.11,2.89-.05,1.86-.07,2.73,0,1.69,0,2.42a19.37,19.37,0,0,0,.52,4.81,8.52,8.52,0,0,0,1.52,3.17,5.69,5.69,0,0,0,2.42,1.8,8.77,8.77,0,0,0,3.2.55,9.3,9.3,0,0,0,2.72-.52,31,31,0,0,0,3.59-1.45q2-.93,4.11-2.19a48.47,48.47,0,0,0,4.26-2.78c1.41-1,2.75-2.05,4-3.15a38.8,38.8,0,0,0,3.48-3.4ZM286.52,85.74a10.12,10.12,0,0,0-.08-1.29,5.44,5.44,0,0,0-.33-1.35,2.62,2.62,0,0,0-.82-1,2.42,2.42,0,0,0-1.53-.41c-.9,0-1.81.8-2.73,2.42a35.14,35.14,0,0,0-2.65,6.19Q277.1,94,276,98.54c-.76,3-1.43,5.95-2.05,8.8.52.07,1,.14,1.55.18l1.62.19c1-1.8,2.11-3.73,3.24-5.83s2.15-4.14,3-6.16,1.64-3.91,2.24-5.65A14.61,14.61,0,0,0,286.52,85.74Z"/><path class="cls-1" d="M342.44,153.73c-3.32,2-6.37,3.68-9,5.14s-4.91,2.72-7,3.7a37.91,37.91,0,0,1-5.39,2.2,14.33,14.33,0,0,1-4.3.74,10.8,10.8,0,0,1-7-2.42,18,18,0,0,1-5-7,44.09,44.09,0,0,1-3.05-11,95.75,95.75,0,0,1-1-14.59q0-3.15.27-6.75t.73-7.11c-1.05-.14-1.84-.28-2.42-.39s-1.18-.26-1.82-.37-1.46-.25-2.45-.4l-4.29-.52a4.57,4.57,0,0,1-1.92-.61,2.91,2.91,0,0,1-1-1,3.51,3.51,0,0,1-.37-1.27c0-.43,0-.81,0-1.13a1.73,1.73,0,0,1,1-1.6,8.46,8.46,0,0,1,2.61-.81,21.57,21.57,0,0,1,3.47-.3c1.27,0,2.48,0,3.65,0l3.11.08a9.27,9.27,0,0,0,1.9-.08,120.87,120.87,0,0,1,3.57-13.78,76.57,76.57,0,0,1,4.84-11.85,32.63,32.63,0,0,1,5.84-8.32,9.46,9.46,0,0,1,6.66-3.14,7,7,0,0,1,4.08,1.27,11,11,0,0,1,3.14,3.37,17.2,17.2,0,0,1,2,4.93,24.49,24.49,0,0,1,.69,5.86,21.8,21.8,0,0,1-.72,5.45,40.87,40.87,0,0,1-2,5.86,59.34,59.34,0,0,1-2.94,6c-1.12,2-2.31,4.06-3.55,6.06.31,0,.82.07,1.56.09l2.52.07c.95,0,2,.08,3.09.14l3.22.13,2.91.1c.91,0,1.66.07,2.24.11a1.69,1.69,0,0,1,1.52,1.06,6.1,6.1,0,0,1,.46,2.52,4.33,4.33,0,0,1-1,3,3.07,3.07,0,0,1-2.29,1.17h-20c-1,1.39-2,2.78-3.05,4.13s-2,2.56-2.84,3.66c-.13,2.17-.25,4.32-.36,6.42,0,.91-.08,1.85-.11,2.82s-.06,1.93-.1,2.87-.06,1.87-.08,2.75,0,1.68,0,2.41a18.77,18.77,0,0,0,.52,4.8,8.46,8.46,0,0,0,1.52,3.19,5.42,5.42,0,0,0,2.4,1.79,8.77,8.77,0,0,0,3.2.56,9.36,9.36,0,0,0,2.74-.53,28.33,28.33,0,0,0,3.58-1.45q1.95-.93,4.1-2.2c1.45-.83,10-7.18,11.44-8.15-.13.09-.25.44-.34.58-.28.52-.53,1.07-.77,1.6a10.6,10.6,0,0,0-.86,6.71,5.09,5.09,0,0,0,2.16,3.37S342.39,153.77,342.44,153.73ZM325.73,87c0-.38,0-.81-.07-1.29a6.09,6.09,0,0,0-.35-1.35,2.66,2.66,0,0,0-.8-1,2.49,2.49,0,0,0-1.54-.42c-.91,0-1.82.82-2.72,2.42a36,36,0,0,0-2.66,6.2c-.85,2.5-1.64,5.27-2.41,8.29s-1.41,6-2,8.8l1.56.19c.51,0,1.06.11,1.61.18q1.56-2.68,3.25-5.83c1.12-2.08,2.14-4.14,3-6.16s1.64-3.9,2.24-5.65A14.24,14.24,0,0,0,325.73,87Z"/></svg>