<svg id="Capa_1" data-name="Capa 1" xmlns="http://www.w3.org/2000/svg" viewBox="0 0 200 200"><defs><style>.cls-1{fill:#606161;}</style></defs><path class="cls-1" d="M182,15l1.59.57a10.2,10.2,0,0,1-1,19.61,9.94,9.94,0,0,1-11.24-5.06,2.43,2.43,0,0,0-2.6-1.49c-10,0-20,0-30,0h-1.65l-.05.24a63.87,63.87,0,0,1,5.86,2.91c4.18,2.62,8.31,5.32,12.36,8.14,2,1.38,2.22,3.43,1,5s-3.36,1.76-5.27.22c-10.94-8.84-23.59-13.61-37.6-15.85,0,.95,0,1.77,0,2.59a3.35,3.35,0,0,1-3.4,3.52q-6.81.09-13.64,0A3.35,3.35,0,0,1,92.92,32c0-.78,0-1.58,0-2.83-4.48,1.09-8.79,2-13,3.21A70.58,70.58,0,0,0,55.32,45.18c-1.91,1.56-4,1.45-5.26-.19s-.93-3.51.93-5.06a73,73,0,0,1,16.8-10.31c.49-.22,1-.47,1.84-.89H35.68a10.34,10.34,0,0,1-7.4,6.46A10.16,10.16,0,0,1,16.4,28.7L15.77,27V23.53A11.21,11.21,0,0,1,24.3,15h3.42c3.7,1,6.54,3.08,7.92,6.73H92.88c.09-2.55-.53-5.32,2.42-6.73H111c3,1.41,2.27,4.31,2.43,6.78h57.22C172,18.07,174.88,16,178.59,15ZM106.47,28.57V21.94h-6.6v6.63Zm77.22-3.36a3.4,3.4,0,1,0-3.46,3.43A3.43,3.43,0,0,0,183.69,25.21ZM26,28.64a3.4,3.4,0,1,0-3.43-3.45A3.44,3.44,0,0,0,26,28.64Z"/><path class="cls-1" d="M15.77,92.48c1.61-3.29,4.72-2.17,7.23-2.41,1-4.18,1.65-8.35,3-12.29,1.72-5,3.93-9.89,6.08-14.76,1.06-2.41,3-3.14,4.92-2.17s2.33,3,1.09,5.28a71.7,71.7,0,0,0-7.47,21.1c-.16.89-.28,1.79-.45,2.87.91,0,1.76,0,2.59,0a3.35,3.35,0,0,1,3.47,3.44q.08,6.83,0,13.64a3.26,3.26,0,0,1-3.37,3.35c-4.54.06-9.09,0-13.63,0-1.71,0-2.63-1.12-3.45-2.39ZM29.35,97H22.7v6.61h6.65Z"/><path class="cls-1" d="M24.3,15a11.21,11.21,0,0,0-8.53,8.53V15Z"/><path class="cls-1" d="M127,167.74c0,5.83,0,11.69,0,17.54,0,3.36-1.12,4.48-4.52,4.48H83.79c-3.4,0-4.53-1.11-4.53-4.47V167.73c-4-1.73-6.43-4.62-6.78-8.94a9.68,9.68,0,0,1,4.46-9.2,1.51,1.51,0,0,0,.68-2.19c-3.85-10.07-7.6-20.19-11.47-30.26a5.1,5.1,0,0,1,.35-4.68q16.68-30.4,33.27-60.85c.75-1.39,1.67-2.46,3.37-2.46s2.64,1.06,3.39,2.44q16.66,30.52,33.36,61a5,5,0,0,1,.26,4.53c-3.84,10-7.58,20.07-11.4,30.1a1.69,1.69,0,0,0,.72,2.46,10.16,10.16,0,0,1-1.12,17.4C128,167.31,127.54,167.5,127,167.74ZM106.93,66.57l-.29,0v38.7l1.2.6a10.23,10.23,0,1,1-14.59,11.65,10.08,10.08,0,0,1,5.25-11.63,1.91,1.91,0,0,0,1.26-2q0-18,0-36V66.61l-.34-.09L74.77,111.6c2.82,0,5.32,0,7.81,0a3.4,3.4,0,1,1-.08,6.79c-2.76,0-5.52,0-8.42,0,.12.47.16.74.26,1,3.42,9.08,6.87,18.16,10.25,27.26a1.53,1.53,0,0,0,1.77,1.11c11.15,0,22.3,0,33.45,0a1.84,1.84,0,0,0,2-1.48c3-8,6-16,9-23.92.47-1.26.93-2.53,1.47-4h-1.73c-2.33,0-4.66,0-7,0a3.38,3.38,0,0,1-3.36-3.39,3.41,3.41,0,0,1,3.36-3.4c.79,0,1.59,0,2.39,0h5.55ZM86.16,182.81h33.92V168.35H86.16ZM103,161.43h9.88c3.58,0,7.16,0,10.74,0A3.38,3.38,0,0,0,127,158.1a3.44,3.44,0,0,0-3.43-3.49c-.51,0-1,0-1.53,0H87c-1.48,0-3,0-4.43,0a3.25,3.25,0,0,0-3.07,2.31,2.81,2.81,0,0,0,.84,3.4,5.69,5.69,0,0,0,3.08,1C89.91,161.48,96.45,161.43,103,161.43Zm.14-43a3.4,3.4,0,1,0-3.37-3.52A3.44,3.44,0,0,0,103.12,118.41Z"/><path class="cls-1" d="M183.1,90.1c1.36,0,2.66,0,4,0a3.34,3.34,0,0,1,3.45,3.46q.08,6.74,0,13.47a3.33,3.33,0,0,1-3.57,3.51q-6.65.08-13.3,0a3.38,3.38,0,0,1-3.58-3.68c0-4.2,0-8.41,0-12.61,0-2.92,1.23-4.14,4.14-4.17h1.93a70.7,70.7,0,0,0-7.2-22.58c-.36-.7-.77-1.39-1.09-2.11a3.4,3.4,0,0,1,1.44-4.54,3.22,3.22,0,0,1,4.52,1.39,73.7,73.7,0,0,1,4.71,10.18c1.7,5.22,2.85,10.61,4.23,15.92C182.88,88.89,183,89.45,183.1,90.1Zm-6.16,13.51h6.67V97h-6.67Z"/><path class="cls-1" d="M43.11,55.94a3.4,3.4,0,1,1,3.37-3.51A3.43,3.43,0,0,1,43.11,55.94Z"/><path class="cls-1" d="M163.14,49.15a3.4,3.4,0,1,1-3.31,3.39A3.44,3.44,0,0,1,163.14,49.15Z"/></svg>