<svg xmlns="http://www.w3.org/2000/svg" viewBox="0 0 216 228"><defs><style>.cls-1{isolation:isolate;}.cls-2{mix-blend-mode:multiply;}.cls-3,.cls-5,.cls-6{fill:none;stroke:#c6a431;stroke-miterlimit:10;}.cls-3{stroke-width:0.5px;}.cls-4{fill:#c6a431;}.cls-5{stroke-width:0.25px;}.cls-6{stroke-width:0.1px;}</style></defs><g class="cls-1"><g id="Capa_1" data-name="Capa 1"><g class="cls-2"><path class="cls-3" d="M115.15,18.09V18a7.39,7.39,0,0,1,8.18-6.85,7.48,7.48,0,0,1,5.52,2.72l-2.22,2.16a5.4,5.4,0,0,0-3.57-1.94,4.3,4.3,0,0,0-4.58,4.15v0a4.31,4.31,0,0,0,3.82,4.91,5.22,5.22,0,0,0,3.94-1.38l1.86,2.22A7.43,7.43,0,0,1,122,26.16,7.34,7.34,0,0,1,115.15,18.09Z"/><path class="cls-3" d="M133.4,12.73l6.44,1.62a5.76,5.76,0,0,1,3.74,2.46,4.56,4.56,0,0,1,.4,3.52v.05a4.5,4.5,0,0,1-4.12,3.6l2.18,5.9L138.41,29l-1.89-5.27h0l-2.39-.6L133,27.6l-3.1-.78Zm4.51,8.41c1.51.38,2.58-.21,2.88-1.39v0c.33-1.33-.42-2.25-1.93-2.63l-3.08-.77-1,4Z"/><path class="cls-3" d="M149.49,17.24l10.09,4.28-1.11,2.61-7.16-3-1.16,2.72,6.31,2.67-1.11,2.62L149,26.42l-1.19,2.81,7.26,3.08L154,34.93l-10.18-4.32Z"/><path class="cls-3" d="M168.08,26.25l2.49,1.58L168,43.52l-2.82-1.79.62-3.46L160.61,35l-2.86,2L155,35.29Zm-1.73,9,.89-5-4.15,2.95Z"/><path class="cls-3" d="M177.87,37,174.5,34.1l1.9-2.25,9.19,7.78-1.91,2.25L180.31,39l-7.49,8.84-2.43-2.07Z"/><path class="cls-3" d="M188.18,42.41l2.21,2.31-10.54,10-2.2-2.32Z"/><path class="cls-3" d="M193,47.33l2.11,2.83-5.94,9.16,10.48-3.06L201.72,59l-15.24,4-1.68-2.27Z"/><path class="cls-3" d="M203.71,62.48l5.09,9.71-2.52,1.32-3.61-6.9L200.06,68l3.18,6.07-2.52,1.32-3.18-6.07-2.7,1.42,3.66,7L196,79l-5.13-9.8Z"/><path class="cls-3" d="M196.14,167.31l0,0a7.37,7.37,0,0,1,1.65,10.53,7.5,7.5,0,0,1-5.17,3.33l-.71-3a5.33,5.33,0,0,0,3.5-2.05,4.29,4.29,0,0,0-1.19-6.06l0,0a4.31,4.31,0,0,0-6.17.74,5.26,5.26,0,0,0-.86,4.09l-2.86.44a7.41,7.41,0,0,1,1.39-6.34A7.33,7.33,0,0,1,196.14,167.31Z"/><path class="cls-3" d="M191.31,185.7l-4.7,4.69a5.81,5.81,0,0,1-4,1.94,4.53,4.53,0,0,1-3.23-1.48l0,0a4.52,4.52,0,0,1-1-5.39l-6.18-1.18,2.65-2.63,5.49,1.1,0,0,1.75-1.75-3.28-3.29,2.26-2.26Zm-9.54-.46c-1.1,1.1-1.14,2.32-.28,3.18l0,0c1,1,2.14.8,3.24-.3l2.25-2.24-2.94-3Z"/><path class="cls-3" d="M179.19,197.15l-8.86,6.46-1.67-2.3,6.29-4.59-1.74-2.38-5.53,4-1.68-2.3,5.54-4-1.8-2.46-6.37,4.64-1.68-2.29,8.94-6.52Z"/><path class="cls-3" d="M161.92,208.47l-2.63,1.33-12.16-10.26,3-1.5,2.66,2.31,5.48-2.77-.28-3.51,2.91-1.47Zm-6.86-6.12,3.85,3.34-.4-5.08Z"/><path class="cls-3" d="M147.68,211.39l4.19-1.43.95,2.79-11.4,3.88-.95-2.79,4.19-1.42-3.73-11,3-1Z"/><path class="cls-3" d="M137.69,217.41l-3.12.7-3.14-14.18,3.12-.7Z"/><path class="cls-3" d="M131,219l-3.51.34-4.78-9.81-2.78,10.56-3.43.33,4.42-15.13,2.81-.28Z"/><path class="cls-3" d="M112.49,220.36l-10.94-.63.17-2.84,7.77.45.17-2.94-6.84-.39.16-2.84,6.84.39.18-3-7.88-.46.17-2.84,11,.64Z"/><path class="cls-3" d="M26.5,160l0,0a7.39,7.39,0,0,1-9.89-4,7.5,7.5,0,0,1-.2-6.15l3,.95a5.34,5.34,0,0,0-.05,4.06,4.31,4.31,0,0,0,5.82,2.09l0,0a4.31,4.31,0,0,0,2.54-5.67,5.29,5.29,0,0,0-3.07-2.84l1.09-2.68a7.43,7.43,0,0,1,4.73,4.46A7.33,7.33,0,0,1,26.5,160Z"/><path class="cls-3" d="M13.2,146.34l-1.59-6.45a5.78,5.78,0,0,1,.42-4.46,4.58,4.58,0,0,1,2.93-2h0a4.52,4.52,0,0,1,5.12,2l4.18-4.69.9,3.62-3.77,4.14v0l.59,2.4,4.51-1.11.77,3.1Zm5.31-7.94c-.37-1.51-1.39-2.18-2.58-1.88h0c-1.33.32-1.78,1.42-1.41,2.93l.76,3.08,4-1Z"/><path class="cls-3" d="M9.64,130l-1-10.91,2.83-.25.68,7.75,2.93-.25-.59-6.82,2.83-.25L18,126.1l3-.26L20.32,118l2.83-.25,1,11Z"/><path class="cls-3" d="M8.85,109.41l.22-2.94,15-5.15-.24,3.34-3.35,1.08-.44,6.13,3.15,1.56L23,116.68Zm8.77-2.73-4.83,1.58,4.55,2.27Z"/><path class="cls-3" d="M13.67,95.71,12.74,100l-2.88-.62,2.53-11.77,2.88.62-.93,4.32L25.66,95,25,98.14Z"/><path class="cls-3" d="M13.62,84.05l1-3,13.78,4.59-1,3Z"/><path class="cls-3" d="M15.7,77.44l1.51-3.19,10.87,1-7.62-7.81,1.48-3.12,10.7,11.57-1.21,2.55Z"/><path class="cls-3" d="M24.07,60.9l6.18-9,2.35,1.6-4.4,6.42,2.44,1.67L34.5,55.9l2.35,1.6L33,63.15l2.52,1.73L40,58.37,42.3,60,36.05,69.1Z"/><path class="cls-4" d="M181.51,86.81l2.2.82a5.32,5.32,0,0,0-.18,3.74c.34,1,.95,1.45,1.59,1.23l0,0c.61-.21.79-.7.62-2.69-.21-2.41-.1-4,2.08-4.81h0c2-.7,3.87.44,4.65,2.68a6.74,6.74,0,0,1,0,4.56l-2.26-.62a5.51,5.51,0,0,0,.08-3.23c-.32-.92-.92-1.26-1.45-1.07h0c-.72.25-.79.8-.61,2.87.2,2.43-.16,4-2.08,4.63h0c-2.18.76-4-.47-4.81-2.84A7.35,7.35,0,0,1,181.51,86.81Z"/><path class="cls-4" d="M193,98.43,192.26,95l2.31-.46,1.88,9.45-2.31.46-.69-3.47-9.09,1.81-.5-2.51Z"/><path class="cls-4" d="M190.2,107.35l6.64-.27.11,2.55-6.57.27c-1.89.08-2.83,1.07-2.77,2.63s1,2.46,2.89,2.39l6.65-.28.11,2.55-6.55.28c-3.52.14-5.32-1.76-5.45-4.88S186.79,107.5,190.2,107.35Z"/><path class="cls-4" d="M197.09,121.29l-.58,4.5c-.46,3.62-3.27,5.8-6.51,5.39h0a5.82,5.82,0,0,1-5-6.87l.57-4.49Zm-9.81,3.32a3.3,3.3,0,0,0,3,3.91h0a3.33,3.33,0,0,0,3.92-3l.25-2-6.95-.88Z"/><path class="cls-4" d="M194.81,135.29l-.63,2.48-11.26-2.89.64-2.48Z"/><path class="cls-4" d="M188,139.05l0,0a6.18,6.18,0,0,1-4.59,11.46h0A6.18,6.18,0,0,1,188,139.05Zm-3.63,9h0a3.53,3.53,0,0,0,4.7-1.9,3.47,3.47,0,0,0-2-4.58l0,0a3.54,3.54,0,0,0-4.71,1.9A3.48,3.48,0,0,0,184.33,148Z"/><path class="cls-4" d="M103.12,188.86l-1.85,1.47a5.36,5.36,0,0,0-3.11-2.08c-1-.21-1.73.07-1.87.74v0c-.13.63.19,1,2,1.92,2.18,1.06,3.52,2,3.06,4.25v0c-.42,2.06-2.36,3.09-4.69,2.61a6.74,6.74,0,0,1-3.93-2.32l1.69-1.62a5.4,5.4,0,0,0,2.73,1.73c1,.2,1.55-.13,1.67-.69v0c.15-.75-.29-1.09-2.15-2-2.19-1.08-3.32-2.17-2.91-4.16v0c.46-2.26,2.44-3.17,4.9-2.67A7.41,7.41,0,0,1,103.12,188.86Z"/><path class="cls-4" d="M87.25,192.7l3.33,1.2-.79,2.22-9.07-3.25.79-2.22,3.34,1.19L88,183.12l2.41.86Z"/><path class="cls-4" d="M81,185.77l-3.18,5.83-2.24-1.22,3.15-5.78c.9-1.66.54-3-.83-3.72s-2.65-.37-3.53,1.25L71.19,188l-2.25-1.22L72.08,181c1.69-3.09,4.25-3.66,7-2.16S82.65,182.77,81,185.77Z"/><path class="cls-4" d="M65.51,184.48,62,181.67c-2.87-2.27-3.29-5.8-1.26-8.36l0,0a5.82,5.82,0,0,1,8.45-.72l3.55,2.81Zm2.23-10.11a3.31,3.31,0,0,0-4.9.55l0,0a3.33,3.33,0,0,0,.57,4.92l1.55,1.23,4.35-5.5Z"/><path class="cls-4" d="M54.7,175.31l-1.79-1.82,8.27-8.15,1.8,1.82Z"/><path class="cls-4" d="M55,167.5l0,0a6.18,6.18,0,0,1-7.48-9.83l0,0A6.18,6.18,0,0,1,55,167.5Zm-5.84-7.72,0,0a3.53,3.53,0,0,0-.79,5,3.48,3.48,0,0,0,5,.6l0,0a3.52,3.52,0,0,0,.79-5A3.48,3.48,0,0,0,49.17,159.78Z"/><path class="cls-4" d="M56,69.14l-.31-2.34A5.34,5.34,0,0,0,59,65.2c.71-.77.84-1.51.33-2l0,0c-.48-.44-1-.38-2.67.72-2,1.31-3.53,2-5.23.42l0,0C49.88,62.9,50,60.71,51.61,59a6.74,6.74,0,0,1,4-2.17l.52,2.28a5.43,5.43,0,0,0-2.89,1.45c-.67.72-.69,1.4-.27,1.78l0,0c.57.52,1.09.32,2.83-.8,2.05-1.32,3.57-1.72,5.06-.35l0,0c1.7,1.57,1.46,3.74-.24,5.58A7.46,7.46,0,0,1,56,69.14Z"/><path class="cls-4" d="M60.83,53.58l-2.74,2.24L56.6,54,64,47.89l1.49,1.82L62.8,52l5.88,7.15-2,1.63Z"/><path class="cls-4" d="M70,51.79l-3.37-5.72,2.2-1.3,3.34,5.66c1,1.64,2.27,2,3.62,1.21s1.68-2.09.74-3.68l-3.38-5.74,2.2-1.3,3.33,5.66c1.79,3,1,5.52-1.72,7.1S71.72,54.74,70,51.79Z"/><path class="cls-4" d="M79.05,39.14l4.24-1.6c3.41-1.3,6.66.16,7.82,3.21v0c1.16,3.06-.3,6.32-3.72,7.62L83.16,50Zm7.53,7.11a3.31,3.31,0,0,0,2-4.49v0a3.35,3.35,0,0,0-4.52-2l-1.85.7L84.73,47Z"/><path class="cls-4" d="M92.48,34.58,95,34l2.73,11.3-2.49.6Z"/><path class="cls-4" d="M99,38.87v0a6.18,6.18,0,0,1,12.28-1.33v0A6.18,6.18,0,0,1,99,38.87Zm9.63-1v0a3.53,3.53,0,0,0-3.88-3.27,3.5,3.5,0,0,0-3.09,4v0a3.52,3.52,0,0,0,3.88,3.26A3.47,3.47,0,0,0,108.66,37.86Z"/><path class="cls-3" d="M114.54,53.27v0a4.74,4.74,0,0,1,5.23-4.39,4.82,4.82,0,0,1,3.54,1.74L121.88,52a3.43,3.43,0,0,0-2.28-1.25,2.76,2.76,0,0,0-2.93,2.66v0a2.77,2.77,0,0,0,2.44,3.14,3.37,3.37,0,0,0,2.53-.88l1.19,1.42a4.79,4.79,0,0,1-3.94,1.33A4.68,4.68,0,0,1,114.54,53.27Z"/><path class="cls-3" d="M126.22,49.84l4.12,1a3.66,3.66,0,0,1,2.39,1.57,2.92,2.92,0,0,1,.26,2.26v0A2.88,2.88,0,0,1,130.35,57l1.39,3.77-2.32-.58-1.2-3.37h0l-1.53-.38-.73,2.88-2-.49Zm2.89,5.38c1,.24,1.65-.13,1.84-.89v0c.22-.85-.26-1.43-1.23-1.68l-2-.49-.65,2.59Z"/><path class="cls-3" d="M136.52,52.72,143,55.46l-.71,1.68-4.58-2-.74,1.74,4,1.71-.72,1.67-4-1.71-.76,1.8,4.64,2-.71,1.68-6.52-2.77Z"/><path class="cls-3" d="M148.41,58.49l1.6,1-1.64,10-1.81-1.14.4-2.22-3.32-2.1-1.84,1.31L140,64.28Zm-1.1,5.78.56-3.21L145.22,63Z"/><path class="cls-3" d="M154.68,65.34l-2.16-1.83,1.22-1.43,5.88,5-1.22,1.44-2.16-1.83-4.79,5.66L149.89,71Z"/><path class="cls-3" d="M161.28,68.83l1.41,1.48L156,76.72l-1.41-1.49Z"/><path class="cls-3" d="M164.38,72l1.35,1.82-3.8,5.86,6.7-2L170,79.46,160.19,82l-1.08-1.45Z"/><path class="cls-3" d="M171.22,81.68l3.25,6.21-1.61.85-2.31-4.42-1.67.88,2,3.88-1.61.85-2-3.89-1.73.91,2.34,4.47-1.61.85L163,86Z"/><path class="cls-3" d="M166.37,148.77l0,0a4.72,4.72,0,0,1,1.06,6.74,4.81,4.81,0,0,1-3.31,2.13l-.46-1.94a3.39,3.39,0,0,0,2.25-1.31,2.75,2.75,0,0,0-.77-3.88h0a2.76,2.76,0,0,0-3.95.47,3.37,3.37,0,0,0-.55,2.62l-1.83.28a4.78,4.78,0,0,1,.89-4.06A4.7,4.7,0,0,1,166.37,148.77Z"/><path class="cls-3" d="M163.28,160.54l-3,3a3.72,3.72,0,0,1-2.58,1.24,2.91,2.91,0,0,1-2.07-.94l0,0a2.88,2.88,0,0,1-.62-3.45l-3.95-.75,1.69-1.69,3.51.71,0,0,1.12-1.12-2.1-2.11,1.45-1.44Zm-6.1-.3a1.34,1.34,0,0,0-.18,2v0c.62.62,1.37.51,2.08-.19l1.44-1.44-1.88-1.89Z"/><path class="cls-3" d="M155.52,167.87,149.86,172l-1.08-1.47,4-2.94-1.11-1.52-3.54,2.58-1.08-1.47,3.55-2.58L149.48,163l-4.08,3-1.08-1.47,5.73-4.17Z"/><path class="cls-3" d="M144.47,175.11l-1.68.85L135,169.4l1.9-1,1.7,1.48,3.51-1.77-.18-2.25,1.86-.94Zm-4.39-3.91,2.46,2.13-.25-3.25Z"/><path class="cls-3" d="M135.36,177l2.68-.91.61,1.78-7.3,2.48-.61-1.78,2.68-.91-2.38-7L133,170Z"/><path class="cls-3" d="M129,180.84l-2,.44-2-9.08,2-.44Z"/><path class="cls-3" d="M124.65,181.87l-2.25.22-3.05-6.28-1.78,6.75-2.2.22,2.83-9.69,1.8-.17Z"/><path class="cls-3" d="M112.84,182.72l-7-.4.1-1.82,5,.29.11-1.88-4.37-.26.1-1.81,4.38.25.11-2-5-.29.11-1.82,7.06.41Z"/><path class="cls-3" d="M57.8,144.06h0a4.73,4.73,0,0,1-6.33-2.57,4.79,4.79,0,0,1-.12-3.93l1.89.61a3.37,3.37,0,0,0,0,2.59,2.74,2.74,0,0,0,3.72,1.34h0a2.76,2.76,0,0,0,1.62-3.63,3.36,3.36,0,0,0-2-1.81l.7-1.72a4.75,4.75,0,0,1,3,2.85A4.69,4.69,0,0,1,57.8,144.06Z"/><path class="cls-3" d="M49.29,135.35l-1-4.13a3.71,3.71,0,0,1,.27-2.86,2.94,2.94,0,0,1,1.87-1.28h0a2.9,2.9,0,0,1,3.28,1.25l2.68-3,.57,2.32-2.41,2.65v0l.38,1.54,2.89-.72.49,2Zm3.4-5.08c-.24-1-.89-1.4-1.65-1.21h0c-.85.21-1.14.91-.9,1.88l.49,2,2.59-.64Z"/><path class="cls-3" d="M47,124.9l-.61-7,1.82-.15.43,5,1.88-.17-.38-4.36L52,118l.38,4.37,1.94-.17-.43-5,1.81-.16.61,7Z"/><path class="cls-3" d="M46.51,111.71l.13-1.88,9.63-3.29-.15,2.13-2.14.7-.29,3.92,2,1-.15,2.08ZM52.12,110,49,111l2.91,1.45Z"/><path class="cls-3" d="M49.59,102.94l-.6,2.77-1.84-.4,1.62-7.53,1.84.4L50,100.94l7.25,1.56-.43,2Z"/><path class="cls-3" d="M49.56,95.48l.65-1.94L59,96.48l-.65,1.94Z"/><path class="cls-3" d="M50.89,91.25l1-2,7,.61-4.87-5,.94-2,6.85,7.4L61,91.86Z"/><path class="cls-3" d="M56.24,80.67l4-5.79,1.5,1L58.89,80l1.56,1.06,2.47-3.62,1.51,1L62,82.11l1.61,1.1,2.85-4.16,1.5,1-4,5.85Z"/><path class="cls-4" d="M157,97.25l1.41.53a3.41,3.41,0,0,0-.12,2.39c.22.63.61.93,1,.78h0c.39-.13.51-.44.39-1.72-.13-1.54-.06-2.59,1.34-3.08h0a2.32,2.32,0,0,1,3,1.72,4.25,4.25,0,0,1,0,2.92l-1.44-.4a3.47,3.47,0,0,0,.05-2.06c-.21-.6-.58-.81-.93-.69h0c-.46.17-.5.52-.39,1.84.13,1.56-.1,2.54-1.32,3h0c-1.4.49-2.55-.3-3.08-1.81A4.67,4.67,0,0,1,157,97.25Z"/><path class="cls-4" d="M164.33,104.69l-.44-2.22,1.48-.3,1.2,6-1.48.29-.44-2.22-5.82,1.16-.32-1.6Z"/><path class="cls-4" d="M162.57,110.4l4.25-.18.07,1.64-4.21.17c-1.21,0-1.81.68-1.77,1.68s.68,1.58,1.85,1.53l4.26-.18.07,1.64-4.19.17c-2.25.09-3.41-1.12-3.49-3.12A2.94,2.94,0,0,1,162.57,110.4Z"/><path class="cls-4" d="M167,119.32l-.37,2.87a3.72,3.72,0,0,1-4.17,3.46h0a3.73,3.73,0,0,1-3.19-4.39l.37-2.88Zm-6.28,2.12a2.11,2.11,0,0,0,1.92,2.5h0a2.15,2.15,0,0,0,2.51-1.94l.16-1.26-4.45-.57Z"/><path class="cls-4" d="M165.52,128.28l-.41,1.58-7.2-1.85.41-1.58Z"/><path class="cls-4" d="M161.13,130.68h0a3.85,3.85,0,0,1,2.09,5.12,3.81,3.81,0,0,1-5,2.22h0a4,4,0,0,1,2.93-7.34Zm-2.31,5.75h0a2.26,2.26,0,0,0,3-1.22,2.22,2.22,0,0,0-1.32-2.93h0a2.26,2.26,0,0,0-3,1.21A2.23,2.23,0,0,0,158.82,136.43Z"/><path class="cls-4" d="M106.84,162.56l-1.18.94a3.44,3.44,0,0,0-2-1.33c-.65-.13-1.1.05-1.19.47v0c-.09.41.12.67,1.27,1.23,1.39.68,2.26,1.28,2,2.73v0a2.34,2.34,0,0,1-3,1.67,4.34,4.34,0,0,1-2.51-1.48l1.08-1A3.49,3.49,0,0,0,103,166.9c.61.12,1-.09,1.06-.45v0c.1-.48-.18-.7-1.38-1.28-1.4-.69-2.12-1.39-1.86-2.66v0c.29-1.45,1.56-2,3.13-1.71A4.76,4.76,0,0,1,106.84,162.56Z"/><path class="cls-4" d="M96.68,165l2.14.76-.51,1.42-5.81-2.07.51-1.42,2.13.76,2-5.58,1.54.55Z"/><path class="cls-4" d="M92.69,160.58l-2,3.73-1.44-.78,2-3.69c.58-1.07.35-1.91-.52-2.38a1.54,1.54,0,0,0-2.27.79l-2,3.74L85,161.21l2-3.68c1.08-2,2.71-2.35,4.47-1.39A3,3,0,0,1,92.69,160.58Z"/><path class="cls-4" d="M82.77,159.76,80.5,158a3.7,3.7,0,0,1-.81-5.35v0a3.73,3.73,0,0,1,5.41-.46l2.28,1.8Zm1.42-6.47a2.11,2.11,0,0,0-3.13.35h0a2.13,2.13,0,0,0,.36,3.15l1,.79,2.79-3.52Z"/><path class="cls-4" d="M75.85,153.89l-1.15-1.16,5.3-5.22,1.15,1.16Z"/><path class="cls-4" d="M76.05,148.89l0,0a3.86,3.86,0,0,1-5.46-.85,3.81,3.81,0,0,1,.68-5.45h0a3.84,3.84,0,0,1,5.46.84A3.8,3.8,0,0,1,76.05,148.89ZM72.31,144h0a2.27,2.27,0,0,0-.51,3.21,2.22,2.22,0,0,0,3.19.38h0a2.27,2.27,0,0,0,.51-3.21A2.23,2.23,0,0,0,72.31,144Z"/><path class="cls-4" d="M76.66,85.94l-.2-1.5a3.41,3.41,0,0,0,2.17-1c.45-.49.53-1,.21-1.26v0c-.31-.28-.64-.24-1.71.46-1.3.85-2.26,1.28-3.35.27h0a2.32,2.32,0,0,1,.11-3.43A4.28,4.28,0,0,1,76.44,78l.33,1.46a3.49,3.49,0,0,0-1.85.92c-.42.46-.44.9-.17,1.14l0,0c.35.33.69.2,1.8-.52,1.31-.84,2.29-1.1,3.24-.22h0c1.08,1,.93,2.39-.16,3.57A4.73,4.73,0,0,1,76.66,85.94Z"/><path class="cls-4" d="M79.77,76,78,77.42l-1-1.17,4.77-3.91,1,1.17L81,74.94l3.77,4.58-1.26,1Z"/><path class="cls-4" d="M85.63,74.84l-2.16-3.67,1.41-.83L87,74a1.57,1.57,0,0,0,2.31.77,1.54,1.54,0,0,0,.48-2.35l-2.16-3.68,1.41-.83,2.13,3.62a3,3,0,0,1-1.11,4.55A3,3,0,0,1,85.63,74.84Z"/><path class="cls-4" d="M91.43,66.74l2.72-1a3.71,3.71,0,0,1,5,2.06v0a3.73,3.73,0,0,1-2.38,4.88l-2.72,1Zm4.82,4.55a2.12,2.12,0,0,0,1.32-2.87v0a2.13,2.13,0,0,0-2.89-1.3l-1.18.44,1.58,4.2Z"/><path class="cls-4" d="M100,63.82l1.59-.38,1.74,7.23-1.59.38Z"/><path class="cls-4" d="M104.22,66.57v0a3.85,3.85,0,0,1,3.54-4.24,3.81,3.81,0,0,1,4.32,3.39v0a4,4,0,0,1-7.86.85Zm6.16-.65v0a2.24,2.24,0,1,0-4.46.45v0a2.27,2.27,0,0,0,2.49,2.09A2.22,2.22,0,0,0,110.38,65.92Z"/><path class="cls-5" d="M114.15,75.78v0A3,3,0,0,1,117.5,73a3.05,3.05,0,0,1,2.26,1.11l-.91.89a2.18,2.18,0,0,0-1.46-.8,1.78,1.78,0,0,0-1.88,1.7v0a1.78,1.78,0,0,0,1.56,2,2.16,2.16,0,0,0,1.62-.57l.76.91a3.07,3.07,0,0,1-2.52.86A3,3,0,0,1,114.15,75.78Z"/><path class="cls-5" d="M121.62,73.59l2.64.66a2.36,2.36,0,0,1,1.53,1A1.89,1.89,0,0,1,126,76.7v0a1.85,1.85,0,0,1-1.68,1.48l.89,2.41-1.49-.37-.77-2.16h0l-1-.25-.46,1.85-1.27-.32ZM123.47,77c.62.16,1.06-.08,1.18-.57v0c.14-.54-.17-.92-.79-1.07l-1.26-.32-.41,1.66Z"/><path class="cls-5" d="M128.21,75.43l4.14,1.76-.46,1.07L129,77l-.48,1.11,2.59,1.1-.46,1.07L128,79.2l-.49,1.15,3,1.26-.45,1.07-4.17-1.77Z"/><path class="cls-5" d="M135.83,79.13l1,.64-1,6.43-1.16-.73.26-1.42-2.13-1.35-1.17.84-1.13-.71Zm-.71,3.69.36-2L133.78,82Z"/><path class="cls-5" d="M139.84,83.51l-1.38-1.17.78-.92L143,84.61l-.78.92-1.38-1.17L137.77,88l-1-.84Z"/><path class="cls-5" d="M144.06,85.74l.9,1-4.31,4.1-.9-1Z"/><path class="cls-5" d="M146,87.76l.87,1.16-2.43,3.75,4.28-1.26.85,1.14-6.24,1.65-.7-.93Z"/><path class="cls-5" d="M150.42,94l2.09,4-1,.54L150,95.66l-1.06.56,1.3,2.48-1,.54-1.31-2.48-1.1.58,1.5,2.86-1,.54-2.1-4Z"/><path class="cls-5" d="M147.32,136.9h0a3,3,0,0,1,.68,4.32,3.08,3.08,0,0,1-2.12,1.36l-.29-1.24a2.17,2.17,0,0,0,1.44-.83,1.78,1.78,0,0,0-.49-2.49h0a1.76,1.76,0,0,0-2.52.3,2.15,2.15,0,0,0-.36,1.68l-1.17.18a3.06,3.06,0,0,1,.57-2.6A3,3,0,0,1,147.32,136.9Z"/><path class="cls-5" d="M145.34,144.44l-1.92,1.91a2.38,2.38,0,0,1-1.66.8,1.89,1.89,0,0,1-1.32-.6v0a1.83,1.83,0,0,1-.4-2.2l-2.53-.48,1.08-1.08,2.25.45h0l.72-.72-1.34-1.35.92-.92Zm-3.9-.19a.86.86,0,0,0-.12,1.3h0c.4.4.88.33,1.33-.12l.92-.92-1.2-1.21Z"/><path class="cls-5" d="M140.38,149.13l-3.63,2.64-.69-.94,2.58-1.88-.71-1-2.27,1.65-.68-.94,2.26-1.66-.73-1-2.61,1.91-.69-.94,3.66-2.67Z"/><path class="cls-5" d="M133.3,153.76l-1.07.55-5-4.2,1.22-.62,1.09.94,2.24-1.13-.12-1.44,1.2-.6Zm-2.81-2.5,1.58,1.36-.16-2.08Z"/><path class="cls-5" d="M127.47,155l1.72-.59.39,1.15-4.67,1.58-.39-1.14,1.71-.58-1.53-4.49,1.24-.42Z"/><path class="cls-5" d="M123.38,157.43l-1.28.28-1.28-5.81,1.27-.28Z"/><path class="cls-5" d="M120.62,158.09l-1.44.14-2-4-1.13,4.32-1.41.14,1.81-6.2,1.15-.11Z"/><path class="cls-5" d="M113.06,158.63l-4.48-.26.06-1.16,3.19.19.07-1.21-2.8-.16.06-1.16,2.8.16.08-1.25-3.23-.18.07-1.17,4.52.26Z"/><path class="cls-5" d="M77.84,133.89h0a3,3,0,0,1-4-1.64,3.07,3.07,0,0,1-.08-2.51l1.21.38a2.24,2.24,0,0,0,0,1.67,1.77,1.77,0,0,0,2.39.85h0a1.78,1.78,0,0,0,1-2.33,2.16,2.16,0,0,0-1.25-1.16l.44-1.1a3.06,3.06,0,0,1,1.94,1.83A3,3,0,0,1,77.84,133.89Z"/><path class="cls-5" d="M72.39,128.31l-.65-2.64a2.37,2.37,0,0,1,.17-1.83,1.88,1.88,0,0,1,1.2-.82h0a1.85,1.85,0,0,1,2.1.79l1.72-1.92.36,1.49-1.54,1.69v0l.25,1,1.84-.45.32,1.27Zm2.18-3.25c-.16-.62-.58-.89-1.06-.77h0c-.54.14-.73.59-.58,1.21l.31,1.26,1.66-.41Z"/><path class="cls-5" d="M70.93,121.63l-.39-4.47,1.16-.11.28,3.18,1.2-.11-.24-2.79,1.16-.1.24,2.79,1.24-.1-.28-3.22,1.16-.1.4,4.51Z"/><path class="cls-5" d="M70.61,113.19l.08-1.21,6.17-2.11-.1,1.37-1.37.45-.19,2.5,1.3.64-.1,1.34Zm3.59-1.12-2,.65,1.87.92Z"/><path class="cls-5" d="M72.58,107.57l-.38,1.77L71,109.09l1-4.82,1.18.25-.38,1.77,4.64,1-.27,1.28Z"/><path class="cls-5" d="M72.56,102.8l.41-1.24,5.65,1.88-.41,1.24Z"/><path class="cls-5" d="M73.41,100.09l.62-1.3,4.45.38L75.36,96,76,94.7l4.38,4.74-.49,1Z"/><path class="cls-5" d="M76.84,93.32l2.53-3.71,1,.66-1.8,2.63,1,.68,1.58-2.31,1,.66-1.58,2.31,1,.71,1.83-2.67,1,.66-2.56,3.74Z"/><path class="cls-4" d="M141.33,103.93l.9.34a2.25,2.25,0,0,0-.08,1.53c.15.4.39.59.66.5h0c.25-.09.32-.29.25-1.11-.08-1,0-1.66.85-2h0a1.48,1.48,0,0,1,1.9,1.09,2.79,2.79,0,0,1,0,1.87l-.93-.25a2.22,2.22,0,0,0,0-1.32c-.14-.38-.38-.52-.6-.44h0c-.3.1-.33.33-.25,1.18s-.07,1.62-.85,1.89h0a1.51,1.51,0,0,1-2-1.16A3,3,0,0,1,141.33,103.93Z"/><path class="cls-4" d="M146,108.69l-.28-1.42,1-.19.77,3.87-.95.19-.28-1.42-3.72.74-.21-1Z"/><path class="cls-4" d="M144.89,112.34l2.72-.11,0,1-2.69.11c-.77,0-1.16.44-1.13,1.07s.43,1,1.18,1l2.73-.11,0,1-2.68.11a1.93,1.93,0,0,1-2.24-2A1.89,1.89,0,0,1,144.89,112.34Z"/><path class="cls-4" d="M147.71,118.05l-.24,1.84a2.37,2.37,0,0,1-2.66,2.21h0a2.38,2.38,0,0,1-2-2.81l.24-1.84Zm-4,1.36a1.35,1.35,0,0,0,1.23,1.6h0a1.38,1.38,0,0,0,1.61-1.25l.1-.8-2.85-.36Z"/><path class="cls-4" d="M146.78,123.79l-.26,1-4.61-1.18.26-1Z"/><path class="cls-4" d="M144,125.33h0a2.46,2.46,0,0,1,1.33,3.28A2.43,2.43,0,0,1,142.1,130h0a2.47,2.47,0,0,1-1.34-3.28A2.44,2.44,0,0,1,144,125.33ZM142.48,129h0a1.44,1.44,0,1,0,1.08-2.66h0a1.44,1.44,0,1,0-1.09,2.66Z"/><path class="cls-4" d="M109.22,145.73l-.76.6a2.19,2.19,0,0,0-1.27-.85c-.42-.09-.71,0-.77.3v0c0,.26.08.42.82.78.89.43,1.44.82,1.25,1.74v0a1.5,1.5,0,0,1-1.92,1.07,2.73,2.73,0,0,1-1.61-.95l.69-.66a2.18,2.18,0,0,0,1.12.7c.39.09.63-.05.68-.28h0c.06-.31-.11-.45-.88-.82s-1.36-.89-1.19-1.7v0a1.52,1.52,0,0,1,2-1.09A3,3,0,0,1,109.22,145.73Z"/><path class="cls-4" d="M102.72,147.3l1.36.49-.32.91L100,147.37l.33-.91,1.36.49,1.28-3.57,1,.35Z"/><path class="cls-4" d="M100.16,144.46l-1.3,2.39-.92-.5L99.23,144a1,1,0,0,0-.34-1.53,1,1,0,0,0-1.44.51l-1.31,2.4-.92-.5,1.29-2.36a1.91,1.91,0,0,1,2.86-.89A1.88,1.88,0,0,1,100.16,144.46Z"/><path class="cls-4" d="M93.82,143.94l-1.46-1.15a2.38,2.38,0,0,1-.52-3.43h0a2.38,2.38,0,0,1,3.46-.3l1.46,1.15Zm.91-4.15a1.36,1.36,0,0,0-2,.23h0a1.36,1.36,0,0,0,.24,2l.63.51,1.78-2.25Z"/><path class="cls-4" d="M89.39,140.18l-.74-.74L92,136.09l.74.75Z"/><path class="cls-4" d="M89.51,137h0a2.53,2.53,0,0,1-3.06-4h0a2.48,2.48,0,0,1,3.5.54A2.45,2.45,0,0,1,89.51,137Zm-2.39-3.16h0a1.44,1.44,0,0,0-.32,2,1.41,1.41,0,0,0,2,.24h0a1.46,1.46,0,0,0,.33-2.06A1.43,1.43,0,0,0,87.12,133.82Z"/><path class="cls-4" d="M89.9,96.69l-.12-1a2.16,2.16,0,0,0,1.39-.65c.29-.31.34-.62.13-.81h0c-.19-.18-.4-.15-1.09.3s-1.45.81-2.14.17h0a1.49,1.49,0,0,1,.07-2.2,2.8,2.8,0,0,1,1.64-.89l.22.94a2.23,2.23,0,0,0-1.19.59c-.27.3-.28.57-.11.73h0c.23.21.45.13,1.16-.33s1.46-.7,2.07-.14h0a1.5,1.5,0,0,1-.1,2.28A3,3,0,0,1,89.9,96.69Z"/><path class="cls-4" d="M91.9,90.32l-1.12.92-.62-.75,3-2.5.61.74-1.12.92,2.41,2.94-.81.66Z"/><path class="cls-4" d="M95.65,89.59l-1.39-2.35.91-.53L96.53,89c.4.67.94.82,1.49.49a1,1,0,0,0,.3-1.5l-1.38-2.35.9-.53,1.36,2.31a1.91,1.91,0,0,1-.71,2.91A1.88,1.88,0,0,1,95.65,89.59Z"/><path class="cls-4" d="M99.36,84.4l1.74-.65a2.37,2.37,0,0,1,3.2,1.32h0a2.38,2.38,0,0,1-1.52,3.12l-1.74.66Zm3.09,2.92a1.36,1.36,0,0,0,.83-1.84h0a1.37,1.37,0,0,0-1.85-.84l-.76.29,1,2.68Z"/><path class="cls-4" d="M104.86,82.54l1-.25L107,86.92l-1,.25Z"/><path class="cls-4" d="M107.55,84.29h0a2.46,2.46,0,0,1,2.27-2.71,2.43,2.43,0,0,1,2.76,2.17h0a2.53,2.53,0,0,1-5,.54Zm3.94-.41h0a1.45,1.45,0,0,0-1.59-1.34,1.43,1.43,0,0,0-1.27,1.62v0a1.44,1.44,0,0,0,1.59,1.33A1.42,1.42,0,0,0,111.49,83.88Z"/><path class="cls-5" d="M113.9,90.19h0a1.94,1.94,0,0,1,2.14-1.8,2,2,0,0,1,1.45.72l-.59.56a1.39,1.39,0,0,0-.93-.51,1.13,1.13,0,0,0-1.2,1.09h0a1.14,1.14,0,0,0,1,1.29,1.42,1.42,0,0,0,1-.36l.49.58a2,2,0,0,1-1.61.55A1.92,1.92,0,0,1,113.9,90.19Z"/><path class="cls-5" d="M118.68,88.79l1.69.42a1.5,1.5,0,0,1,1,.65,1.19,1.19,0,0,1,.1.92h0a1.18,1.18,0,0,1-1.08.95l.57,1.54L120,93l-.49-1.38h0l-.63-.16-.3,1.18-.81-.2Zm1.18,2.2c.4.1.68,0,.76-.36h0c.09-.35-.11-.59-.51-.69l-.8-.21L119,90.78Z"/><path class="cls-5" d="M122.9,90l2.64,1.12-.29.69-1.88-.8-.3.71,1.65.7-.29.69-1.65-.7-.31.73,1.9.81-.29.69-2.67-1.14Z"/><path class="cls-5" d="M127.77,92.33l.65.41-.67,4.12-.74-.47.17-.91-1.37-.86-.75.54-.72-.46Zm-.45,2.37.23-1.32-1.09.78Z"/><path class="cls-5" d="M130.34,95.14l-.89-.75.5-.59,2.41,2-.5.59-.88-.75L129,98l-.64-.54Z"/><path class="cls-5" d="M133,96.57l.58.6-2.76,2.63-.58-.61Z"/><path class="cls-5" d="M134.31,97.86l.55.74-1.55,2.4,2.74-.8.54.72-4,1.06-.45-.6Z"/><path class="cls-5" d="M137.11,101.83l1.34,2.54-.66.35-.95-1.81-.69.36.84,1.59-.66.35-.84-1.59-.7.37,1,1.83-.66.34-1.35-2.56Z"/><path class="cls-5" d="M135.13,129.31h0a1.94,1.94,0,0,1,.43,2.76,2,2,0,0,1-1.36.87l-.18-.79a1.39,1.39,0,0,0,.91-.54,1.12,1.12,0,0,0-.31-1.59h0a1.12,1.12,0,0,0-1.61.2,1.37,1.37,0,0,0-.23,1.07l-.75.12a2,2,0,0,1,.37-1.67A1.92,1.92,0,0,1,135.13,129.31Z"/><path class="cls-5" d="M133.86,134.13l-1.23,1.23a1.53,1.53,0,0,1-1.06.51,1.2,1.2,0,0,1-.85-.39h0a1.17,1.17,0,0,1-.26-1.41l-1.62-.31.7-.69,1.43.29h0l.46-.45-.86-.87.59-.59Zm-2.5-.12a.54.54,0,0,0-.07.83h0c.26.26.57.21.85-.08l.59-.59-.77-.77Z"/><path class="cls-5" d="M130.68,137.13l-2.32,1.69-.44-.6,1.65-1.2-.45-.63-1.45,1.06-.44-.6,1.45-1.06-.47-.64-1.67,1.21-.44-.6,2.34-1.71Z"/><path class="cls-5" d="M126.16,140.1l-.69.35-3.19-2.69.78-.4.7.61,1.44-.73-.08-.92.76-.38Zm-1.8-1.61,1,.88-.11-1.33Z"/><path class="cls-5" d="M122.42,140.86l1.1-.37.25.73-3,1-.25-.73,1.1-.38-1-2.87.8-.27Z"/><path class="cls-5" d="M119.81,142.44l-.82.18-.83-3.71.82-.18Z"/><path class="cls-5" d="M118,142.87l-.92.09-1.25-2.58-.73,2.77-.9.09,1.16-4,.73-.07Z"/><path class="cls-5" d="M113.2,143.22l-2.87-.17,0-.74,2,.11,0-.77-1.8-.1,0-.74,1.79.1,0-.8-2.06-.12,0-.74,2.9.16Z"/><path class="cls-5" d="M90.66,127.38h0A2.06,2.06,0,0,1,88,124.72l.78.25a1.39,1.39,0,0,0,0,1.06,1.12,1.12,0,0,0,1.52.55h0a1.14,1.14,0,0,0,.67-1.49,1.34,1.34,0,0,0-.81-.74l.29-.71a2,2,0,0,1,1.24,1.17A1.93,1.93,0,0,1,90.66,127.38Z"/><path class="cls-5" d="M87.17,123.81l-.42-1.69a1.56,1.56,0,0,1,.11-1.17,1.22,1.22,0,0,1,.77-.53h0a1.17,1.17,0,0,1,1.34.51l1.1-1.23.24,1-1,1.09h0l.16.63,1.18-.29.2.81Zm1.39-2.08c-.09-.4-.36-.57-.67-.49h0c-.35.08-.47.37-.37.77l.2.81,1.06-.27Z"/><path class="cls-5" d="M86.24,119.53,86,116.67l.74-.06.18,2,.77-.07-.16-1.79.74-.06.16,1.79.8-.07L89,116.38l.74-.07L90,119.2Z"/><path class="cls-5" d="M86,114.13l.06-.77L90,112l-.06.87-.88.29L89,114.78l.83.4-.06.86Zm2.3-.72-1.27.42,1.2.59Z"/><path class="cls-5" d="M87.29,110.54l-.24,1.13-.76-.16.67-3.09.75.17-.24,1.13,3,.64-.18.82Z"/><path class="cls-5" d="M87.28,107.48l.27-.79,3.61,1.2-.27.8Z"/><path class="cls-5" d="M87.83,105.75l.39-.84,2.85.25-2-2,.39-.81,2.81,3L92,106Z"/><path class="cls-5" d="M90,101.41,91.64,99l.62.42-1.16,1.69.64.43,1-1.48.62.42-1,1.48.66.46,1.16-1.71.62.42-1.64,2.39Z"/><path class="cls-4" d="M131.29,108.2l.58.22a1.44,1.44,0,0,0-.05,1c.09.26.25.38.42.32h0c.16-.06.2-.18.16-.71s0-1.06.54-1.26h0a1,1,0,0,1,1.22.7,1.77,1.77,0,0,1,0,1.2l-.59-.16a1.46,1.46,0,0,0,0-.85c-.08-.24-.24-.33-.38-.28h0c-.19.07-.21.21-.16.75s0,1-.54,1.22h0c-.57.2-1-.12-1.26-.74A2,2,0,0,1,131.29,108.2Z"/><path class="cls-4" d="M134.29,111.25l-.18-.91.61-.12.49,2.48-.61.12-.18-.91-2.38.47-.13-.65Z"/><path class="cls-4" d="M133.57,113.59l1.74-.07,0,.67-1.72.07c-.5,0-.75.28-.73.69s.28.64.76.62l1.74-.07,0,.67-1.72.07a1.23,1.23,0,0,1-1.43-1.28A1.22,1.22,0,0,1,133.57,113.59Z"/><path class="cls-4" d="M135.38,117.24l-.15,1.18a1.53,1.53,0,0,1-1.71,1.42h0a1.53,1.53,0,0,1-1.31-1.8l.15-1.18Zm-2.58.87a.87.87,0,0,0,.79,1h0a.88.88,0,0,0,1-.79l.06-.52-1.82-.23Z"/><path class="cls-4" d="M134.78,120.92l-.17.64-3-.75.17-.65Z"/><path class="cls-4" d="M133,121.9h0a1.58,1.58,0,0,1,.85,2.1,1.56,1.56,0,0,1-2.05.91h0a1.59,1.59,0,0,1-.86-2.1A1.57,1.57,0,0,1,133,121.9Zm-.95,2.35h0a.93.93,0,0,0,1.23-.5.9.9,0,0,0-.53-1.2h0a.94.94,0,0,0-1.24.5A.91.91,0,0,0,132,124.25Z"/><path class="cls-4" d="M110.74,135l-.48.38a1.42,1.42,0,0,0-.82-.54c-.27-.06-.45,0-.49.19h0c0,.17,0,.27.52.5s.93.53.81,1.12h0a1,1,0,0,1-1.23.68,1.78,1.78,0,0,1-1-.61l.45-.42a1.36,1.36,0,0,0,.71.45c.25.06.41,0,.44-.18h0c0-.19-.07-.28-.56-.52s-.87-.57-.76-1.09h0a1,1,0,0,1,1.28-.7A1.92,1.92,0,0,1,110.74,135Z"/><path class="cls-4" d="M106.58,136l.88.31-.21.58-2.38-.85.21-.58.87.31.82-2.29.63.23Z"/><path class="cls-4" d="M105,134.15l-.84,1.53-.58-.33.82-1.51a.63.63,0,0,0-.22-1,.62.62,0,0,0-.92.32l-.84,1.54-.59-.33.83-1.5a1.23,1.23,0,0,1,1.83-.57A1.21,1.21,0,0,1,105,134.15Z"/><path class="cls-4" d="M100.88,133.81l-.93-.74a1.52,1.52,0,0,1-.33-2.19h0a1.52,1.52,0,0,1,2.21-.19l.93.74Zm.59-2.65a.88.88,0,0,0-1.29.14h0a.87.87,0,0,0,.15,1.29l.4.32,1.14-1.44Z"/><path class="cls-4" d="M98.05,131.41l-.47-.48,2.17-2.14.47.48Z"/><path class="cls-4" d="M98.13,129.36h0a1.62,1.62,0,0,1-2-2.57h0a1.58,1.58,0,0,1,2.24.35A1.56,1.56,0,0,1,98.13,129.36Zm-1.53-2h0a.92.92,0,0,0-.2,1.31.9.9,0,0,0,1.3.16h0a.94.94,0,0,0,.21-1.32A.92.92,0,0,0,96.6,127.33Z"/><path class="cls-4" d="M98.38,103.57,98.3,103a1.41,1.41,0,0,0,.89-.42c.18-.2.22-.4.09-.52h0c-.13-.12-.26-.1-.7.19s-.93.52-1.37.11h0a1,1,0,0,1,0-1.4,1.75,1.75,0,0,1,1.05-.57l.14.59a1.48,1.48,0,0,0-.76.38c-.18.19-.18.37-.07.47h0c.14.13.28.08.74-.21s.93-.46,1.32-.1h0a1,1,0,0,1-.07,1.46A1.88,1.88,0,0,1,98.38,103.57Z"/><path class="cls-4" d="M99.66,99.49l-.72.59-.39-.47,2-1.61.39.48-.72.59,1.55,1.88-.52.42Z"/><path class="cls-4" d="M102.06,99l-.89-1.5.58-.34.87,1.48c.26.43.6.52.95.32a.64.64,0,0,0,.2-1l-.89-1.5.58-.34.87,1.48a1.22,1.22,0,0,1-.45,1.86A1.2,1.2,0,0,1,102.06,99Z"/><path class="cls-4" d="M104.43,95.71l1.11-.42a1.51,1.51,0,0,1,2,.84h0a1.53,1.53,0,0,1-1,2l-1.11.42Zm2,1.86a.86.86,0,0,0,.53-1.17h0a.87.87,0,0,0-1.18-.54l-.49.19.65,1.72Z"/><path class="cls-4" d="M108,94.52l.65-.16.72,3-.65.16Z"/><path class="cls-4" d="M109.67,95.64h0a1.62,1.62,0,0,1,3.22-.35h0a1.62,1.62,0,0,1-3.22.35Zm2.52-.27h0a.92.92,0,0,0-1-.86.91.91,0,0,0-.81,1h0a.91.91,0,0,0,1,.85A.9.9,0,0,0,112.19,95.37Z"/><path class="cls-5" d="M113.74,99.41h0a1.23,1.23,0,0,1,1.37-1.15,1.2,1.2,0,0,1,.92.45l-.37.36a.9.9,0,0,0-.6-.32.71.71,0,0,0-.76.7h0a.74.74,0,0,0,.64.83.91.91,0,0,0,.67-.24l.31.38a1.27,1.27,0,0,1-1,.35A1.23,1.23,0,0,1,113.74,99.41Z"/><path class="cls-5" d="M116.8,98.51l1.08.28a.94.94,0,0,1,.63.41.78.78,0,0,1,.06.59h0a.74.74,0,0,1-.69.6l.37,1-.61-.15-.32-.89h0l-.4-.1-.19.76-.52-.13Zm.76,1.42a.36.36,0,0,0,.48-.24h0c.06-.22-.07-.37-.32-.44l-.52-.13-.17.68Z"/><path class="cls-5" d="M119.5,99.27l1.69.72-.19.44-1.2-.51-.19.45,1.06.45-.19.44-1.06-.45-.2.47,1.22.52-.19.44-1.7-.73Z"/><path class="cls-5" d="M122.62,100.78l.41.27-.43,2.63-.47-.3.1-.58-.87-.55-.48.34-.46-.29Zm-.29,1.52.14-.84-.69.49Z"/><path class="cls-5" d="M124.26,102.58l-.57-.48.32-.38,1.54,1.31-.32.37-.56-.48-1.26,1.49-.41-.35Z"/><path class="cls-5" d="M126,103.49l.37.39-1.77,1.68-.37-.39Z"/><path class="cls-5" d="M126.8,104.32l.35.47-1,1.54,1.76-.51.34.46-2.56.68-.28-.38Z"/><path class="cls-5" d="M128.59,106.86l.86,1.63-.42.22-.61-1.16-.44.23.53,1-.42.22-.53-1-.45.24.61,1.17-.42.23-.86-1.65Z"/><path class="cls-5" d="M127.32,124.45h0a1.25,1.25,0,0,1,.28,1.77,1.27,1.27,0,0,1-.87.56l-.12-.51a.89.89,0,0,0,.59-.34.73.73,0,0,0-.2-1h0a.71.71,0,0,0-1,.12.86.86,0,0,0-.15.69l-.48.07a1.29,1.29,0,0,1,2-1.34Z"/><path class="cls-5" d="M126.51,127.53l-.79.79a1,1,0,0,1-.67.33.76.76,0,0,1-.54-.25h0a.75.75,0,0,1-.16-.9l-1-.2.45-.44.92.18h0l.29-.29-.55-.56.38-.37Zm-1.6-.07a.35.35,0,0,0,0,.53h0c.16.16.36.13.54-.06l.38-.37-.49-.5Z"/><path class="cls-5" d="M124.48,129.45,123,130.54l-.28-.39,1.06-.77-.29-.4-.93.68-.28-.39.93-.67-.31-.42-1.06.78-.29-.38,1.5-1.1Z"/><path class="cls-5" d="M121.58,131.35l-.44.23-2-1.72.5-.26.45.39.92-.46,0-.59.49-.25Zm-1.15-1,.65.56L121,130Z"/><path class="cls-5" d="M119.19,131.84l.71-.24.16.47-1.92.65-.16-.47.71-.23-.63-1.84.51-.18Z"/><path class="cls-5" d="M117.52,132.85,117,133l-.52-2.38.52-.11Z"/><path class="cls-5" d="M116.39,133.13l-.59.05-.8-1.64-.47,1.77-.58.05.75-2.54.47,0Z"/><path class="cls-5" d="M113.29,133.35l-1.84-.11,0-.47,1.31.07,0-.49-1.14-.07,0-.47,1.15.06,0-.51-1.32-.07,0-.48,1.85.11Z"/><path class="cls-5" d="M98.86,123.21h0a1.32,1.32,0,0,1-1.69-1.71l.49.16a.94.94,0,0,0,0,.68.72.72,0,0,0,1,.35h0a.72.72,0,0,0,.42-1,.89.89,0,0,0-.51-.48l.18-.45a1.24,1.24,0,0,1,.79.75A1.21,1.21,0,0,1,98.86,123.21Z"/><path class="cls-5" d="M96.63,120.93l-.26-1.08a.94.94,0,0,1,.07-.75.73.73,0,0,1,.49-.34h0a.75.75,0,0,1,.86.33l.7-.79.15.61-.63.69h0l.1.4.76-.18.13.52Zm.89-1.33c-.06-.26-.23-.37-.43-.32h0c-.22.06-.3.24-.23.5l.12.51.68-.16Z"/><path class="cls-5" d="M96,118.19l-.16-1.83.48,0,.11,1.3.5,0-.1-1.15.47,0,.1,1.14.51,0-.11-1.32.47,0,.16,1.85Z"/><path class="cls-5" d="M95.9,114.73l0-.49,2.52-.86,0,.56-.56.18-.07,1,.52.26,0,.54Zm1.47-.45-.81.26.77.38Z"/><path class="cls-5" d="M96.71,112.43l-.16.73-.48-.1.42-2,.49.11-.16.72,1.9.41-.11.52Z"/><path class="cls-5" d="M96.7,110.48l.17-.51,2.31.77-.17.51Z"/><path class="cls-5" d="M97.05,109.37l.25-.53,1.83.15-1.28-1.31.25-.52,1.79,1.94-.2.43Z"/><path class="cls-5" d="M98.45,106.6l1-1.52.4.27-.74,1.08.41.27.65-.94.39.27L100,107l.42.29.75-1.09.39.27-1,1.53Z"/><path class="cls-4" d="M124.87,110.94l.37.14a.86.86,0,0,0,0,.63c.06.16.16.24.26.2h0c.1,0,.13-.12.1-.45s0-.68.35-.81h0a.61.61,0,0,1,.78.45,1.13,1.13,0,0,1,0,.77l-.37-.11a1,1,0,0,0,0-.54c-.06-.16-.15-.21-.24-.18h0c-.12,0-.13.14-.1.48s0,.67-.35.78h0c-.36.13-.66-.08-.8-.47A1.24,1.24,0,0,1,124.87,110.94Z"/><path class="cls-4" d="M126.79,112.89l-.12-.58.39-.08.32,1.59-.39.07-.12-.58-1.52.31-.09-.42Z"/><path class="cls-4" d="M126.33,114.39l1.11,0,0,.43-1.1,0c-.32,0-.48.18-.47.44s.18.41.49.4l1.11,0,0,.43-1.1,0a.79.79,0,0,1-.91-.82A.77.77,0,0,1,126.33,114.39Z"/><path class="cls-4" d="M127.48,116.73l-.09.75a1,1,0,0,1-1.1.91h0a1,1,0,0,1-.84-1.16l.1-.75Zm-1.64.55a.55.55,0,0,0,.5.66h0a.55.55,0,0,0,.65-.51l0-.33-1.16-.15Z"/><path class="cls-4" d="M127.1,119.08l-.11.41-1.88-.48.1-.42Z"/><path class="cls-4" d="M126,119.71h0a1,1,0,0,1,.54,1.34,1,1,0,0,1-1.31.58h0a1,1,0,0,1-.55-1.34A1,1,0,0,1,126,119.71Zm-.61,1.5h0a.6.6,0,0,0,.79-.32.58.58,0,0,0-.35-.77h0a.59.59,0,0,0-.79.31A.58.58,0,0,0,125.34,121.21Z"/><path class="cls-4" d="M111.72,128.06l-.31.25a.94.94,0,0,0-.53-.35c-.17,0-.28,0-.31.12h0c0,.11,0,.17.34.32s.59.34.51.72h0a.61.61,0,0,1-.79.44,1.11,1.11,0,0,1-.66-.39l.28-.27a.94.94,0,0,0,.46.29c.16,0,.26,0,.28-.12h0c0-.13,0-.18-.36-.34s-.55-.36-.48-.69h0c.07-.38.41-.53.82-.45A1.26,1.26,0,0,1,111.72,128.06Z"/><path class="cls-4" d="M109.06,128.71l.55.2-.13.37-1.52-.54.13-.38.56.2.52-1.46.41.14Z"/><path class="cls-4" d="M108,127.55l-.53,1-.38-.2.53-1c.15-.28.09-.5-.14-.62a.39.39,0,0,0-.59.2l-.54,1-.38-.2.53-1a.85.85,0,1,1,1.5.81Z"/><path class="cls-4" d="M105.41,127.33l-.6-.47a1,1,0,0,1-.21-1.41h0a1,1,0,0,1,1.42-.12l.6.47Zm.37-1.7a.55.55,0,0,0-.82.09h0a.55.55,0,0,0,.09.82l.26.21.73-.92Z"/><path class="cls-4" d="M103.59,125.79l-.3-.3,1.39-1.37.3.3Z"/><path class="cls-4" d="M103.65,124.48h0a1,1,0,0,1-1.25-1.65h0a1,1,0,0,1,1.43.22A1,1,0,0,1,103.65,124.48Zm-1-1.29h0a.59.59,0,1,0,.71.94h0a.59.59,0,0,0,.13-.84A.56.56,0,0,0,102.67,123.19Z"/><path class="cls-4" d="M103.81,108l-.06-.39a1,1,0,0,0,.57-.27c.12-.13.14-.26.06-.33h0c-.08-.07-.16-.06-.44.12s-.6.34-.88.07h0a.61.61,0,0,1,0-.9,1.07,1.07,0,0,1,.67-.36l.09.38a.87.87,0,0,0-.49.24c-.11.12-.11.24,0,.3h0c.09.09.18.06.47-.13s.6-.29.85-.06h0a.63.63,0,0,1,0,.94A1.23,1.23,0,0,1,103.81,108Z"/><path class="cls-4" d="M104.62,105.37l-.46.37-.25-.3,1.25-1,.25.31-.46.37,1,1.21-.33.27Z"/><path class="cls-4" d="M106.16,105.07l-.57-1,.37-.22.56,1a.42.42,0,0,0,.61.2.41.41,0,0,0,.12-.62l-.56-1,.37-.22.55,1a.78.78,0,0,1-.29,1.19A.76.76,0,0,1,106.16,105.07Z"/><path class="cls-4" d="M107.68,102.94l.71-.26a1,1,0,0,1,1.31.54h0a1,1,0,0,1-.62,1.28l-.71.27Zm1.26,1.2a.57.57,0,0,0,.35-.76h0a.55.55,0,0,0-.75-.34l-.31.12.41,1.09Z"/><path class="cls-4" d="M109.93,102.18l.42-.1.46,1.89-.42.11Z"/><path class="cls-4" d="M111,102.9h0a1,1,0,0,1,.93-1.11,1,1,0,0,1,1.13.89h0a1,1,0,0,1-2.06.22Zm1.62-.17h0a.59.59,0,0,0-.66-.54.57.57,0,0,0-.51.66h0a.59.59,0,1,0,1.17-.12Z"/><path class="cls-5" d="M113.63,105.31h0a.83.83,0,0,1,1.47-.44l-.23.23a.59.59,0,0,0-.39-.21.46.46,0,0,0-.49.45h0a.47.47,0,0,0,.41.53.57.57,0,0,0,.42-.15l.2.24a.82.82,0,0,1-1.39-.65Z"/><path class="cls-5" d="M115.59,104.74l.69.17a.63.63,0,0,1,.41.27.53.53,0,0,1,0,.38h0a.5.5,0,0,1-.44.39l.23.63-.39-.1-.2-.56h0l-.25-.07-.13.49-.33-.09Zm.49.9a.23.23,0,0,0,.31-.15h0c0-.14,0-.24-.21-.28l-.33-.09-.11.44Z"/><path class="cls-5" d="M117.32,105.22l1.08.46-.12.28-.76-.32-.13.29.68.29-.12.28-.68-.29-.13.3.78.33-.12.28-1.09-.46Z"/><path class="cls-5" d="M119.32,106.19l.26.17-.27,1.69-.3-.2.06-.37-.56-.35-.3.22-.3-.19Zm-.19,1,.1-.54-.45.32Z"/><path class="cls-5" d="M120.37,107.34,120,107l.2-.24,1,.84-.21.24-.36-.31-.8,1-.27-.22Z"/><path class="cls-5" d="M121.48,107.93l.23.24-1.13,1.08-.24-.25Z"/><path class="cls-5" d="M122,108.46l.23.3-.64,1,1.13-.33.22.3-1.64.43-.18-.24Z"/><path class="cls-5" d="M123.14,110.08l.55,1-.27.15-.39-.74-.28.14.34.65-.27.15-.34-.66-.29.16.39.75-.27.14-.55-1Z"/><path class="cls-5" d="M122.33,121.34h0a.84.84,0,0,1-.38,1.49l-.07-.33a.53.53,0,0,0,.37-.22.46.46,0,0,0-.12-.65h0a.46.46,0,0,0-.66.08.57.57,0,0,0-.09.44l-.31,0a.8.8,0,0,1,.15-.68A.78.78,0,0,1,122.33,121.34Z"/><path class="cls-5" d="M121.81,123.31l-.5.51a.61.61,0,0,1-.44.2.48.48,0,0,1-.34-.15h0a.48.48,0,0,1-.1-.58l-.66-.12.28-.29.59.12h0l.19-.19-.35-.35.24-.24Zm-1,0c-.12.12-.13.25,0,.34h0c.1.1.23.08.35,0l.24-.25L121,123Z"/><path class="cls-5" d="M120.51,124.54l-1,.69-.18-.24.67-.49-.18-.26-.6.43-.18-.24.6-.44-.2-.26-.68.5-.18-.25,1-.7Z"/><path class="cls-5" d="M118.65,125.76l-.28.14-1.3-1.1.32-.16.28.24.59-.29,0-.38.31-.16Zm-.73-.66.41.36,0-.55Z"/><path class="cls-5" d="M117.13,126.07l.45-.15.1.3-1.23.41-.1-.3.45-.15-.4-1.18.33-.11Z"/><path class="cls-5" d="M116.05,126.72l-.33.07-.34-1.52.34-.08Z"/><path class="cls-5" d="M115.33,126.89l-.38,0-.51-1.06-.3,1.14-.37,0,.48-1.62.3,0Z"/><path class="cls-5" d="M113.35,127l-1.18-.06,0-.31.84,0v-.32l-.73,0,0-.3.73,0,0-.33-.85-.05,0-.3,1.19.07Z"/><path class="cls-5" d="M104.11,120.55h0a.79.79,0,0,1-1.06-.43.77.77,0,0,1,0-.66l.32.1a.56.56,0,0,0,0,.44.46.46,0,0,0,.63.22h0a.46.46,0,0,0,.27-.61.54.54,0,0,0-.33-.3L104,119a.8.8,0,0,1,.51.48A.79.79,0,0,1,104.11,120.55Z"/><path class="cls-5" d="M102.69,119.09l-.17-.7a.64.64,0,0,1,0-.48.47.47,0,0,1,.32-.21h0a.48.48,0,0,1,.55.21l.45-.51.09.39-.4.45h0l.06.26.49-.12.08.33Zm.57-.86a.23.23,0,0,0-.28-.2h0c-.15,0-.2.15-.16.32l.09.33.43-.11Z"/><path class="cls-5" d="M102.3,117.33l-.1-1.17.31,0,.07.84.31,0-.06-.73.3,0,.07.73.32,0-.07-.84.3,0,.11,1.19Z"/><path class="cls-5" d="M102.22,115.12l0-.31,1.62-.56,0,.36-.36.12,0,.65.34.17,0,.35Zm.94-.29-.52.17.49.24Z"/><path class="cls-5" d="M102.74,113.65l-.1.46-.31-.06.27-1.27.31.07-.1.46,1.21.26-.07.34Z"/><path class="cls-5" d="M102.73,112.4l.11-.33,1.48.49-.11.33Z"/><path class="cls-5" d="M103,111.69l.17-.34,1.16.1-.81-.84.15-.34,1.15,1.25-.13.27Z"/><path class="cls-5" d="M103.85,109.91l.67-1,.25.17-.47.69.26.18.41-.61.26.18-.42.6.27.19.48-.7.25.17-.67,1Z"/><path class="cls-4" d="M120.76,112.69l.24.09a.51.51,0,0,0,0,.4c0,.11.1.16.17.14h0c.06,0,.08-.07.07-.29s0-.43.22-.51h0a.38.38,0,0,1,.5.28.75.75,0,0,1,0,.49l-.25-.06a.53.53,0,0,0,0-.35c0-.1-.1-.13-.15-.11h0c-.07,0-.08.08-.06.31s0,.42-.23.49h0c-.23.09-.43,0-.52-.3A.8.8,0,0,1,120.76,112.69Z"/><path class="cls-4" d="M122,113.94l-.08-.37.25,0,.2,1-.25,0-.07-.37-1,.2,0-.27Z"/><path class="cls-4" d="M121.69,114.9l.71,0,0,.27-.71,0a.28.28,0,0,0-.3.29.26.26,0,0,0,.31.25l.72,0V116l-.7,0a.51.51,0,0,1-.59-.53A.5.5,0,0,1,121.69,114.9Z"/><path class="cls-4" d="M122.43,116.4l-.06.48a.62.62,0,0,1-.7.58h0a.63.63,0,0,1-.54-.74l.06-.48Zm-1.05.35a.35.35,0,0,0,.32.42h0a.35.35,0,0,0,.42-.32l0-.21-.75-.1Z"/><path class="cls-4" d="M122.19,117.9l-.07.27-1.21-.32.07-.26Z"/><path class="cls-4" d="M121.45,118.3h0a.65.65,0,0,1,.35.86.64.64,0,0,1-.84.38h0a.66.66,0,0,1,.49-1.23Zm-.39,1h0a.38.38,0,1,0,.28-.7h0a.39.39,0,0,0-.51.2A.38.38,0,0,0,121.06,119.27Z"/><path class="cls-4" d="M112.34,123.65l-.2.16a.53.53,0,0,0-.33-.22c-.11,0-.19,0-.2.08h0c0,.07,0,.11.21.2s.38.22.33.46h0a.39.39,0,0,1-.5.29.81.81,0,0,1-.43-.25l.19-.18a.56.56,0,0,0,.29.19c.1,0,.17,0,.18-.08h0c0-.08,0-.12-.23-.21s-.36-.24-.31-.45h0c0-.25.26-.34.52-.29A.8.8,0,0,1,112.34,123.65Z"/><path class="cls-4" d="M110.64,124.06l.36.13-.09.24-1-.35.08-.24.36.13.33-.94.26.1Z"/><path class="cls-4" d="M110,123.32l-.34.63-.24-.14.33-.62a.26.26,0,0,0-.09-.4c-.14-.08-.28,0-.37.14l-.35.63-.24-.14.34-.61a.5.5,0,0,1,.75-.24A.51.51,0,0,1,110,123.32Z"/><path class="cls-4" d="M108.3,123.18l-.38-.3a.62.62,0,0,1-.13-.9h0a.63.63,0,0,1,.91-.08l.38.3Zm.24-1.08a.35.35,0,0,0-.52.05h0a.36.36,0,0,0,.07.53l.16.13.47-.59Z"/><path class="cls-4" d="M107.14,122.2,107,122l.89-.87.19.19Z"/><path class="cls-4" d="M107.18,121.36h0a.64.64,0,0,1-.91-.14.65.65,0,0,1,.11-.92h0a.66.66,0,0,1,.92.14A.65.65,0,0,1,107.18,121.36Zm-.63-.83h0a.39.39,0,0,0-.09.54.37.37,0,0,0,.54.06h0a.38.38,0,0,0,.08-.54A.37.37,0,0,0,106.55,120.53Z"/><path class="cls-4" d="M107.28,110.8l0-.25a.57.57,0,0,0,.37-.18c.08-.08.09-.16,0-.21h0s-.1,0-.29.08-.37.21-.56,0h0a.39.39,0,0,1,0-.58.71.71,0,0,1,.43-.23l.06.25a.51.51,0,0,0-.31.15c-.07.08-.08.15,0,.19h0c.06.06.12,0,.3-.08s.39-.19.55,0h0a.4.4,0,0,1,0,.6A.76.76,0,0,1,107.28,110.8Z"/><path class="cls-4" d="M107.8,109.13l-.29.24-.16-.2.79-.66.17.2-.3.24.63.77-.21.17Z"/><path class="cls-4" d="M108.78,108.93l-.36-.61.24-.14.36.61a.26.26,0,0,0,.38.13.26.26,0,0,0,.08-.4l-.36-.61.24-.14.36.6a.51.51,0,0,1-.19.77A.5.5,0,0,1,108.78,108.93Z"/><path class="cls-4" d="M109.76,107.58l.45-.18a.62.62,0,0,1,.84.35h0a.62.62,0,0,1-.4.82l-.45.17Zm.81.76a.36.36,0,0,0,.22-.48h0a.36.36,0,0,0-.48-.22l-.2.08.27.7Z"/><path class="cls-4" d="M111.2,107.09l.27-.07.29,1.21-.27.07Z"/><path class="cls-4" d="M111.9,107.55h0a.65.65,0,0,1,.6-.71.64.64,0,0,1,.72.57h0a.66.66,0,0,1-1.32.15Zm1-.11h0a.39.39,0,0,0-.42-.35.38.38,0,0,0-.33.43h0a.36.36,0,0,0,.41.35A.38.38,0,0,0,112.94,107.44Z"/><path class="cls-6" d="M113.57,109.09h0a.5.5,0,0,1,.56-.47.53.53,0,0,1,.38.18l-.15.15a.41.41,0,0,0-.25-.13.29.29,0,0,0-.31.29h0a.3.3,0,0,0,.26.34.38.38,0,0,0,.27-.1l.13.15a.54.54,0,0,1-.43.15A.5.5,0,0,1,113.57,109.09Z"/><path class="cls-6" d="M114.82,108.72l.44.12a.38.38,0,0,1,.26.16.35.35,0,0,1,0,.25h0a.32.32,0,0,1-.28.25l.14.4-.24-.06-.13-.36h0l-.16,0-.08.31-.21-.06Zm.31.58c.11,0,.18,0,.2-.09h0c0-.09,0-.15-.13-.18l-.21,0-.07.28Z"/><path class="cls-6" d="M115.93,109l.69.3-.08.18-.49-.21-.08.19.44.18-.08.18-.43-.19-.09.2.5.21-.07.18-.7-.3Z"/><path class="cls-6" d="M117.2,109.65l.18.11-.18,1.08-.19-.12,0-.24-.36-.23-.19.14-.19-.12Zm-.11.62.06-.34-.29.2Z"/><path class="cls-6" d="M117.88,110.39l-.23-.2.13-.15.63.53-.13.16-.23-.2-.52.61-.17-.14Z"/><path class="cls-6" d="M118.59,110.76l.15.16-.73.69-.15-.16Z"/><path class="cls-6" d="M118.92,111.1l.14.2-.4.63.72-.22.14.19-1,.28-.12-.15Z"/><path class="cls-6" d="M119.65,112.14l.35.67-.17.09-.25-.47-.18.09.22.42-.17.09-.22-.42-.19.1.26.48-.18.09-.35-.67Z"/><path class="cls-6" d="M119.13,119.35h0a.5.5,0,0,1,.11.72.49.49,0,0,1-.36.23l0-.21a.37.37,0,0,0,.25-.14.3.3,0,0,0-.09-.41h0a.3.3,0,0,0-.42,0,.38.38,0,0,0-.06.29l-.2,0a.53.53,0,0,1,.81-.55Z"/><path class="cls-6" d="M118.8,120.61l-.32.32a.42.42,0,0,1-.28.14A.31.31,0,0,1,118,121h0a.3.3,0,0,1-.07-.37l-.42-.08.18-.18.37.08h0l.12-.12-.23-.22.16-.16Zm-.65,0a.14.14,0,0,0,0,.22h0c.06.07.15,0,.22,0l.16-.16-.21-.2Z"/><path class="cls-6" d="M118,121.4l-.61.44-.12-.16.44-.31-.12-.17-.38.28-.12-.16.38-.27-.12-.17-.44.32-.11-.16.61-.45Z"/><path class="cls-6" d="M116.78,122.17l-.18.1-.83-.71.2-.1.18.16.38-.19,0-.24.2-.11Zm-.47-.42.26.23,0-.34Z"/><path class="cls-6" d="M115.8,122.38l.29-.1.07.19-.79.27-.06-.2.29-.09-.26-.76.21-.07Z"/><path class="cls-6" d="M115.12,122.79l-.22,0-.21-1,.21,0Z"/><path class="cls-6" d="M114.65,122.9l-.24,0-.33-.67-.19.73-.23,0,.3-1,.19,0Z"/><path class="cls-6" d="M113.38,123l-.75,0v-.2l.54,0v-.2l-.47,0v-.2l.47,0v-.21l-.54,0V122l.76,0Z"/><path class="cls-6" d="M107.48,118.84h0a.51.51,0,0,1-.68-.27.54.54,0,0,1,0-.43l.2.07a.39.39,0,0,0,0,.28.3.3,0,0,0,.4.14h0a.3.3,0,0,0,.18-.39.39.39,0,0,0-.21-.19l.07-.19a.53.53,0,0,1,.33.31A.51.51,0,0,1,107.48,118.84Z"/><path class="cls-6" d="M106.56,117.91l-.11-.45a.37.37,0,0,1,0-.3.3.3,0,0,1,.2-.14h0a.31.31,0,0,1,.35.13l.28-.32.07.25-.26.28h0l0,.17.31-.08,0,.22Zm.37-.55c0-.1-.1-.15-.18-.13h0a.14.14,0,0,0-.1.2l0,.21.28-.06Z"/><path class="cls-6" d="M106.32,116.78l-.07-.75h.2l0,.53.2,0,0-.47h.2l0,.46h.21l0-.54.2,0,.06.76Z"/><path class="cls-6" d="M106.26,115.37l0-.2,1-.36,0,.23-.23.08,0,.42.22.1,0,.23Zm.61-.19-.34.11.32.15Z"/><path class="cls-6" d="M106.59,114.43l-.06.29-.2,0,.18-.81.19,0-.06.3.78.17,0,.21Z"/><path class="cls-6" d="M106.59,113.63l.07-.21,1,.31-.07.21Z"/><path class="cls-6" d="M106.73,113.17l.11-.22.74.07-.52-.54.1-.21.74.79-.09.18Z"/><path class="cls-6" d="M107.31,112l.42-.62.16.11-.3.44.17.12.27-.39.16.11-.27.39.17.12.31-.45.16.11-.43.63Z"/><path class="cls-4" d="M118.13,113.81l.15.06a.39.39,0,0,0,0,.26c0,.07.06.1.11.08h0s.05,0,0-.18,0-.28.14-.33h0a.27.27,0,0,1,.32.19.54.54,0,0,1,0,.31l-.16,0a.34.34,0,0,0,0-.22c0-.07-.06-.09-.1-.08h0s-.06,0,0,.19,0,.27-.14.32h0a.26.26,0,0,1-.33-.19A.52.52,0,0,1,118.13,113.81Z"/><path class="cls-4" d="M118.91,114.61l0-.23.16,0,.12.65-.15,0,0-.23-.63.12,0-.17Z"/><path class="cls-4" d="M118.73,115.23l.45,0v.17l-.45,0c-.13,0-.2.07-.19.18s.07.17.2.17l.45,0v.17l-.45,0a.35.35,0,1,1,0-.69Z"/><path class="cls-4" d="M119.2,116.18l0,.31a.4.4,0,0,1-.45.37h0a.39.39,0,0,1-.34-.47l0-.31Zm-.68.23a.24.24,0,0,0,.21.27h0a.23.23,0,0,0,.27-.21l0-.13-.48-.06Z"/><path class="cls-4" d="M119,117.15l0,.17-.78-.2,0-.17Z"/><path class="cls-4" d="M118.57,117.4h0a.42.42,0,0,1-.31.78h0a.41.41,0,0,1-.23-.55A.42.42,0,0,1,118.57,117.4Zm-.25.62h0a.25.25,0,0,0,.33-.13.24.24,0,0,0-.14-.31h0a.24.24,0,1,0-.18.44Z"/><path class="cls-4" d="M112.74,120.83l-.13.1a.31.31,0,0,0-.21-.14c-.07,0-.12,0-.13,0h0s0,.07.14.13.24.14.21.29h0a.24.24,0,0,1-.32.17.4.4,0,0,1-.27-.15l.11-.12a.31.31,0,0,0,.19.12c.07,0,.11,0,.11,0h0s0-.07-.14-.13-.23-.15-.2-.29h0a.25.25,0,0,1,.33-.19A.53.53,0,0,1,112.74,120.83Z"/><path class="cls-4" d="M111.65,121.09l.23.08-.06.16-.62-.23.06-.15.23.08.21-.6.16.06Z"/><path class="cls-4" d="M111.22,120.62l-.22.4-.15-.09.22-.39a.18.18,0,0,0-.06-.26c-.1,0-.18,0-.24.09l-.22.4-.16-.09.22-.39a.35.35,0,1,1,.61.33Z"/><path class="cls-4" d="M110.16,120.53l-.25-.2a.4.4,0,0,1-.08-.57h0a.39.39,0,0,1,.58-.05l.24.19Zm.15-.7a.23.23,0,0,0-.34,0h0a.23.23,0,0,0,0,.34l.11.08.3-.37Z"/><path class="cls-4" d="M109.41,119.9l-.12-.13.57-.56.12.13Z"/><path class="cls-4" d="M109.43,119.36h0a.42.42,0,0,1-.51-.67h0a.43.43,0,0,1,.59.09A.41.41,0,0,1,109.43,119.36Zm-.4-.53h0a.24.24,0,1,0,.29.39h0a.24.24,0,0,0,.06-.34A.25.25,0,0,0,109,118.83Z"/><path class="cls-4" d="M109.5,112.6l0-.16a.34.34,0,0,0,.23-.11c.05,0,.06-.1,0-.14h0s-.07,0-.18,0-.24.14-.36,0h0a.25.25,0,0,1,0-.37.51.51,0,0,1,.28-.15l0,.16a.42.42,0,0,0-.2.1s0,.09,0,.12h0s.07,0,.19,0,.25-.12.35,0h0a.26.26,0,0,1,0,.39A.47.47,0,0,1,109.5,112.6Z"/><path class="cls-4" d="M109.83,111.53l-.18.16-.11-.13.52-.42.1.13-.19.15.4.49-.13.11Z"/><path class="cls-4" d="M110.46,111.41l-.23-.4.15-.08.23.38c.07.12.16.14.25.09a.17.17,0,0,0,0-.26l-.23-.39.15-.09.23.39a.35.35,0,1,1-.6.36Z"/><path class="cls-4" d="M111.09,110.54l.29-.11a.4.4,0,0,1,.54.22h0a.4.4,0,0,1-.26.53l-.29.11Zm.51.49a.23.23,0,0,0,.15-.31h0a.22.22,0,0,0-.31-.14l-.12,0,.17.46Z"/><path class="cls-4" d="M112,110.23l.17,0,.19.78-.17,0Z"/><path class="cls-4" d="M112.46,110.52h0a.42.42,0,0,1,.38-.46.41.41,0,0,1,.46.37h0a.42.42,0,0,1-.84.09Zm.66-.07h0a.24.24,0,0,0-.27-.23.25.25,0,0,0-.21.28h0a.24.24,0,0,0,.27.22A.23.23,0,0,0,113.12,110.45Z"/><path class="cls-6" d="M113.53,111.51h0a.32.32,0,0,1,.36-.3.31.31,0,0,1,.24.12l-.1.09a.21.21,0,0,0-.16-.08.19.19,0,0,0-.2.18h0a.19.19,0,0,0,.17.22.25.25,0,0,0,.17-.06l.09.09a.33.33,0,0,1-.28.09A.31.31,0,0,1,113.53,111.51Z"/><path class="cls-6" d="M114.33,111.27l.28.08a.26.26,0,0,1,.17.1.22.22,0,0,1,0,.16h0a.19.19,0,0,1-.18.16l.1.26-.16,0-.08-.23h0l-.1,0,0,.2-.14,0Zm.2.37a.09.09,0,0,0,.12-.06h0c0-.06,0-.1-.08-.11l-.14,0,0,.18Z"/><path class="cls-6" d="M115,111.47l.44.19,0,.12-.31-.14-.05.12.27.12,0,.11-.27-.11L115,112l.32.14,0,.11-.44-.19Z"/><path class="cls-6" d="M115.85,111.87l.11.07-.11.69-.12-.08,0-.15-.22-.15-.13.09-.12-.07Zm-.07.4,0-.22-.19.12Z"/><path class="cls-6" d="M116.28,112.34l-.14-.13.08-.1.4.35-.08.1-.15-.13-.33.39-.11-.09Z"/><path class="cls-6" d="M116.74,112.58l.09.1-.46.44-.1-.1Z"/><path class="cls-6" d="M117,112.8l.09.12-.26.4.46-.13.09.12-.67.18-.07-.1Z"/><path class="cls-6" d="M117.42,113.46l.22.43-.11.06-.16-.31-.11.06.14.27-.11.06-.14-.27-.12.06.16.31-.11.06-.23-.43Z"/><path class="cls-6" d="M117.09,118.07h0a.33.33,0,0,1,.07.47.32.32,0,0,1-.23.14l0-.13a.24.24,0,0,0,.16-.09.2.2,0,0,0-.06-.27h0a.19.19,0,0,0-.27,0,.25.25,0,0,0,0,.17l-.12,0a.31.31,0,0,1,.06-.27A.33.33,0,0,1,117.09,118.07Z"/><path class="cls-6" d="M116.88,118.88l-.21.21a.29.29,0,0,1-.18.08.2.2,0,0,1-.14-.06h0a.21.21,0,0,1,0-.24l-.27-.05.12-.12.24,0h0l.08-.08-.15-.14.1-.1Zm-.42,0a.1.1,0,0,0,0,.14h0s.1,0,.15,0l.1-.1-.13-.13Z"/><path class="cls-6" d="M116.34,119.38l-.39.29-.07-.1.28-.2-.08-.11-.24.18-.08-.1.25-.18-.08-.11-.28.21-.08-.1.4-.29Z"/><path class="cls-6" d="M115.58,119.88l-.11.06-.54-.45.13-.07.12.11.24-.13v-.15l.13-.07Zm-.3-.27.17.15,0-.22Z"/><path class="cls-6" d="M115,120l.18-.06,0,.12-.5.17,0-.12.18-.06-.16-.49.13,0Z"/><path class="cls-6" d="M114.52,120.28l-.14,0-.14-.63.14,0Z"/><path class="cls-6" d="M114.22,120.35h-.15l-.21-.43-.13.46-.15,0,.2-.67h.12Z"/><path class="cls-6" d="M113.41,120.41l-.48,0v-.13l.35,0v-.13H113V120l.3,0v-.14l-.35,0v-.12l.49,0Z"/><path class="cls-6" d="M109.63,117.75h0a.33.33,0,0,1-.44-.18.32.32,0,0,1,0-.27l.13,0a.23.23,0,0,0,0,.18.2.2,0,0,0,.26.1h0a.19.19,0,0,0,.11-.25.24.24,0,0,0-.14-.12l0-.12a.32.32,0,0,1,.21.2A.32.32,0,0,1,109.63,117.75Z"/><path class="cls-6" d="M109,117.15l-.07-.28a.26.26,0,0,1,0-.2.25.25,0,0,1,.13-.09h0a.22.22,0,0,1,.23.09l.18-.21,0,.16-.17.18h0l0,.11.2,0,0,.14Zm.24-.35a.1.1,0,0,0-.12-.08h0c-.06,0-.08.06-.06.13l0,.13.18,0Z"/><path class="cls-6" d="M108.89,116.43l0-.48H109l0,.34h.13l0-.3h.13l0,.3h.13l0-.35h.13l0,.49Z"/><path class="cls-6" d="M108.85,115.53v-.13l.66-.23v.15l-.15,0,0,.27.14.07v.15Zm.39-.12-.22.07.2.1Z"/><path class="cls-6" d="M109.06,114.92l0,.19-.13,0,.12-.52.12,0,0,.19.5.1,0,.14Z"/><path class="cls-6" d="M109.06,114.41l0-.13.61.2,0,.13Z"/><path class="cls-6" d="M109.15,114.12l.07-.14.48,0-.34-.34.07-.14.47.51-.06.11Z"/><path class="cls-6" d="M109.52,113.39l.27-.4.1.08-.19.28.11.07.17-.25.1.07-.17.25.11.08.2-.29.1.07-.27.4Z"/></g></g></g></svg>