<svg id="Capa_1" data-name="Capa 1" xmlns="http://www.w3.org/2000/svg" viewBox="0 0 200 200"><defs><style>.cls-1{fill:#606161;}</style></defs><path class="cls-1" d="M71,170.6H30.16c-7.15,0-11.41-4.22-11.41-11.34,0-20.46.05-40.93,0-61.39,0-5.5,1.94-9.52,7.39-11.67C14.43,77.6,8.67,66.2,9.81,51.81c.85-10.76,5.87-19.53,14.43-26.14a37.3,37.3,0,0,1,56.48,14C87.21,27,97.36,19.54,111.5,18.18c10.46-1,19.76,2.26,27.7,9.17a37.36,37.36,0,0,1-3.81,58.87c3.63,1.41,6.14,3.86,7,7.7a22.7,22.7,0,0,1,.24,4.45c0,3.46,0,6.93,0,10.66.84-.39,1.44-.65,2-1q18.07-9.26,36.15-18.52c3-1.55,5.86-1.55,8.56.53,2.14,1.65,2.81,4,2.81,6.61q0,27.14,0,54.29c0,2.92,0,5.85,0,8.77,0,6.68-5.59,10.05-11.56,7q-17.91-9.16-35.8-18.38c-.6-.3-1.22-.58-2.17-1v3.47c0,3.05,0,6.09,0,9.14-.06,6.29-4.41,10.63-10.74,10.64-13.81,0-27.62,0-41.43,0ZM80.61,164H131c4,0,5.11-1.13,5.11-5.1q0-30.69,0-61.38c0-3.9-1.24-5.16-5.12-5.16H30.41c-3.86,0-5.06,1.19-5.06,5q0,30.88,0,61.75c0,3.75,1.15,4.91,4.88,4.91ZM114.55,24.61a30.62,30.62,0,1,0,30.64,30.54A30.63,30.63,0,0,0,114.55,24.61ZM77.4,55.16A30.62,30.62,0,1,0,46.83,85.85,30.54,30.54,0,0,0,77.4,55.16ZM173.1,101a6.43,6.43,0,0,0-.95.33c-9.5,4.86-19,9.71-28.46,14.65a2.71,2.71,0,0,0-1.05,2c-.08,6.77,0,13.55-.07,20.32a2.16,2.16,0,0,0,1.36,2.28q13.95,7.08,27.84,14.24a12.54,12.54,0,0,0,1.33.49Zm12.41,27.07V97.88c0-3.4.06-3.28-3.09-1.87-2,.9-2.72,2-2.7,4.32q.18,27.51,0,55c0,2.87.76,4.39,3.39,5.39,2.28.86,2.42.93,2.42-1.51Q185.53,143.67,185.51,128.09ZM80.7,70.44A39.41,39.41,0,0,1,68.13,85.67H93.31A38.68,38.68,0,0,1,80.7,70.44Z"/><path class="cls-1" d="M80.7,70.44A38.68,38.68,0,0,0,93.31,85.67H68.13A39.41,39.41,0,0,0,80.7,70.44Z"/><path class="cls-1" d="M109.25,137.81h16.21c3.92,0,5.8,1.9,5.82,5.85,0,3.54,0,7.08,0,10.62s-2,5.52-5.57,5.52q-16.59,0-33.17,0c-3.62,0-5.57-1.93-5.59-5.48,0-3.73,0-7.46,0-11.18,0-3.35,2-5.31,5.35-5.33C97.94,137.79,103.6,137.81,109.25,137.81ZM93.61,153.07h31v-8.53h-31Z"/><path class="cls-1" d="M122.14,114.32a8.9,8.9,0,0,1,.4-17.8,8.9,8.9,0,1,1-.4,17.8Zm.18-6.57a2.3,2.3,0,0,0,2.33-2.35,2.27,2.27,0,0,0-2.38-2.28,2.17,2.17,0,0,0-2.21,2.25A2.23,2.23,0,0,0,122.32,107.75Z"/><path class="cls-1" d="M41.31,159.81c-2.11,0-4.22,0-6.33,0a3.36,3.36,0,0,1-3.61-3.23,3.31,3.31,0,0,1,3.52-3.33q6.51-.12,13,0a3.3,3.3,0,0,1,3.51,3.33c0,1.86-1.48,3.19-3.61,3.23S43.49,159.81,41.31,159.81Z"/><path class="cls-1" d="M124.35,55.29a9.76,9.76,0,1,1-9.76-9.88A9.77,9.77,0,0,1,124.35,55.29Zm-6.51-.07A3.31,3.31,0,0,0,114.67,52a3.2,3.2,0,0,0-3.26,3.28,3.13,3.13,0,0,0,3.22,3.12A3.22,3.22,0,0,0,117.84,55.22Z"/><path class="cls-1" d="M46.8,65a9.8,9.8,0,1,1,9.8-9.71A9.9,9.9,0,0,1,46.8,65Zm-.07-6.62A3.15,3.15,0,0,0,50,55.31,3.24,3.24,0,0,0,46.77,52a3.19,3.19,0,0,0-3.16,3.2A3.1,3.1,0,0,0,46.73,58.38Z"/></svg>